# Blender v2.79 (sub 0) OBJ File: 'Arrow.blend'
# www.blender.org
v -0.687500 -0.058756 -0.058756
v -0.687500 0.058756 -0.058756
v -0.687500 -0.058756 0.058756
v -0.687500 0.058756 0.058756
v 0.655524 -0.025000 0.025000
v 0.655524 0.025000 0.025000
v 0.655524 -0.025000 -0.025000
v 0.655524 0.025000 -0.025000
v -0.654768 0.025000 0.025000
v -0.654768 -0.025000 -0.025000
v -0.654768 -0.025000 0.025000
v -0.654768 0.025000 -0.025000
v 0.687500 0.000000 -0.000000
vn 0.7179 0.0000 0.6961
vn -1.0000 0.0000 0.0000
vn 0.7179 -0.6961 0.0000
vn 0.0000 1.0000 0.0000
vn -0.0000 0.0000 -1.0000
vn 0.6159 -0.7878 0.0000
vn 0.7179 0.0000 -0.6961
vn 0.7179 0.6961 0.0000
vn 0.0000 -1.0000 0.0000
vn 0.0000 0.0000 1.0000
vn 0.6159 0.0000 -0.7878
vn 0.6159 0.0000 0.7878
vn 0.6159 0.7878 0.0000
s off
f 9//1 3//1 11//1
f 4//2 1//2 3//2
f 3//3 10//3 11//3
f 6//4 12//4 9//4
f 12//5 7//5 10//5
f 7//6 13//6 5//6
f 2//7 10//7 1//7
f 9//8 2//8 4//8
f 11//9 7//9 5//9
f 6//10 11//10 5//10
f 7//11 8//11 13//11
f 5//12 13//12 6//12
f 8//13 6//13 13//13
f 9//1 4//1 3//1
f 4//2 2//2 1//2
f 3//3 1//3 10//3
f 6//4 8//4 12//4
f 12//5 8//5 7//5
f 2//7 12//7 10//7
f 9//8 12//8 2//8
f 11//9 10//9 7//9
f 6//10 9//10 11//10
