# Blender v2.80 (sub 75) OBJ File: 'Demo.blend'
# www.blender.org
v 0.000000 0.000000 0.000000
v 5.000000 2.000000 0.000000
v 0.000000 1.000000 -5.000000
v 6.000000 1.500000 -4.000000
v 0.000000 0.500000 4.000000
v -3.500000 0.200000 0.000000
v -8.000000 1.000000 -5.000000
v 4.663486 0.554593 4.032002
v 3.638232 0.336999 21.084026
v 0.000000 0.000000 20.000000
v 7.333860 0.966318 0.844143
v 7.333860 0.966318 3.720454
v 7.333860 0.966318 -3.324640
v 16.256861 0.966318 0.844143
v 16.256861 0.966318 3.720454
v 16.256861 0.966318 -3.324640
v 14.629351 6.247899 0.844143
v 14.013319 6.247899 3.720454
v 14.013319 6.247899 -3.324640
v 11.795361 0.966318 3.720454
v 7.333860 5.775544 3.720454
v 11.795361 5.775544 3.720454
v 3.950160 0.403201 15.896049
v 4.455104 0.510367 7.497806
v 7.679699 0.798697 8.312405
v 7.702113 0.946744 14.493270
v 3.950160 5.222127 15.896049
v 2.803725 3.702348 7.460643
v 7.679699 5.617624 8.312405
v 7.702113 5.765671 14.493270
v 4.559295 0.532480 5.764904
v 3.022403 3.668546 5.523054
v 0.000000 0.000000 10.000000
v -10.000000 0.000000 20.000000
v -10.000000 0.000000 10.000000
v -5.000000 0.000000 20.000000
v -7.500000 0.000000 20.000000
v -2.500000 0.000000 20.000000
v 0.000000 0.200000 20.000000
v -2.500000 0.200000 20.000000
v -2.500000 0.400000 20.000000
v -5.000000 0.400000 20.000000
v -5.000000 0.600000 20.000000
v -7.500000 0.600000 20.000000
v -7.500000 0.800000 20.000000
v -10.000000 0.800000 20.000000
v 0.000000 0.000000 22.000000
v 0.000000 0.200000 22.000000
v -2.500000 0.200000 22.000000
v -2.500000 0.400000 22.000000
v -5.000000 0.400000 22.000000
v -5.000000 0.600000 22.000000
v -7.500000 0.600000 22.000000
v -7.500000 0.800000 22.000000
v -10.000000 0.800000 22.000000
v -10.000000 0.000000 15.000000
v -10.000000 0.000000 17.500000
v -10.000000 0.000000 12.500000
v -10.000000 1.000000 20.000000
v -10.000000 1.000000 17.500000
v -10.000000 1.200000 17.500000
v -10.000000 1.200000 15.000000
v -10.000000 1.400000 15.000000
v -10.000000 1.400000 12.500000
v -10.000000 1.600000 10.000000
v -10.000000 1.600000 12.500000
v -12.000000 0.800000 20.000000
v -12.000000 1.000000 20.000000
v -12.000000 1.000000 17.500000
v -12.000000 1.200000 17.500000
v -12.000000 1.200000 15.000000
v -12.000000 1.400000 15.000000
v -12.000000 1.400000 12.500000
v -12.000000 1.600000 10.000000
v -12.000000 1.600000 12.500000
v -12.000000 0.800000 22.000000
v 10.000000 0.966318 -3.324640
v 10.904742 0.966318 -3.324639
v 10.000000 15.800000 -3.324640
v 10.904742 15.800000 -3.324639
v 10.000000 15.800000 2.726991
v 10.904742 15.800000 2.726992
v 15.379736 15.800000 -3.324639
v 15.379736 15.800000 2.726992
v 10.000000 16.000000 -3.324640
v 10.904742 16.000000 -3.324639
v 10.000000 16.000000 2.726991
v 10.904742 16.000000 2.726992
v 15.379736 16.000000 -3.324639
v 15.379736 16.000000 2.726992
v 0.000000 1.000000 -13.000000
v -8.000000 1.000000 -13.000000
v 0.000000 31.000000 -5.000000
v -8.000000 31.000000 -5.000000
v 0.000000 31.000000 -13.000000
v -8.000000 31.000000 -13.000000
vn -0.3651 0.9129 0.1826
vn -0.0593 0.9886 -0.1384
vn -0.3689 0.9223 -0.1153
vn 0.0566 0.9907 -0.1238
vn 0.0559 0.9790 0.1958
vn 0.0000 0.9874 0.1580
vn -0.0133 0.9416 0.3364
vn -0.0118 0.9999 0.0121
vn -0.3264 0.9420 0.0785
vn 0.2731 0.8981 0.3447
vn -0.1524 0.9883 0.0000
vn 0.3803 0.9246 -0.0205
vn 0.4050 0.9143 0.0000
vn 0.0000 1.0000 0.0000
vn -0.9120 -0.3874 0.1348
vn -0.9557 -0.2945 0.0000
vn 0.0000 0.0000 -1.0000
vn -0.0909 0.9958 0.0072
vn -0.1518 0.9881 -0.0231
vn -1.0000 0.0000 0.0036
vn -0.3502 0.0000 -0.9367
vn -0.1470 -0.0646 0.9870
vn -0.8946 -0.4430 -0.0594
vn -0.8840 -0.4584 -0.0918
vn -0.0922 0.9957 0.0000
vn 1.0000 0.0000 0.0000
vn 0.0000 0.0000 1.0000
vn 0.0000 -1.0000 0.0000
vn -1.0000 0.0000 0.0000
vn -0.9030 -0.3836 -0.1934
vn -0.2449 0.0000 0.9695
s off
f 1//1 2//1 3//1
f 3//2 2//2 4//2
f 2//3 1//3 5//3
f 5//4 1//4 6//4
f 1//5 3//5 6//5
f 6//6 3//6 7//6
f 5//7 8//7 2//7
f 24//8 31//8 5//8
f 9//9 5//9 33//9
f 8//10 11//10 2//10
f 12//11 11//11 8//11
f 4//12 2//12 13//12
f 11//13 13//13 2//13
f 13//14 11//14 14//14
f 11//14 12//14 20//14
f 14//14 11//14 15//14
f 77//14 13//14 14//14
f 16//15 17//15 19//15
f 15//16 17//16 14//16
f 20//14 15//14 11//14
f 12//17 22//17 20//17
f 23//18 25//18 24//18
f 25//19 23//19 26//19
f 26//20 29//20 25//20
f 26//21 27//21 30//21
f 24//22 29//22 28//22
f 24//23 32//23 31//23
f 24//24 28//24 32//24
f 36//14 33//14 56//14
f 10//25 9//25 33//25
f 38//17 40//17 39//17
f 38//17 36//17 40//17
f 42//17 40//17 36//17
f 40//17 42//17 41//17
f 36//17 37//17 42//17
f 44//17 42//17 37//17
f 42//17 44//17 43//17
f 10//17 38//17 39//17
f 37//17 34//17 44//17
f 46//17 44//17 34//17
f 44//17 46//17 45//17
f 46//14 54//14 45//14
f 42//14 50//14 41//14
f 45//26 53//26 44//26
f 41//26 49//26 40//26
f 39//26 47//26 10//26
f 44//14 52//14 43//14
f 43//26 51//26 42//26
f 40//14 48//14 39//14
f 34//26 57//26 46//26
f 60//26 46//26 57//26
f 46//26 60//26 59//26
f 61//26 60//26 62//26
f 62//26 60//26 56//26
f 57//26 56//26 60//26
f 63//26 62//26 64//26
f 64//26 62//26 58//26
f 56//26 58//26 62//26
f 66//26 64//26 65//26
f 58//26 35//26 64//26
f 65//26 64//26 35//26
f 73//14 63//14 64//14
f 72//27 62//27 63//27
f 74//14 66//14 65//14
f 60//14 68//14 59//14
f 59//27 67//27 46//27
f 71//14 61//14 62//14
f 75//27 64//27 66//27
f 70//27 60//27 61//27
f 46//14 76//14 55//14
f 78//27 79//27 77//27
f 80//28 81//28 79//28
f 80//28 84//28 82//28
f 83//26 90//26 84//26
f 81//29 85//29 79//29
f 79//17 86//17 80//17
f 84//27 88//27 82//27
f 82//27 87//27 81//27
f 80//17 89//17 83//17
f 87//14 86//14 85//14
f 89//14 88//14 90//14
f 3//14 92//14 7//14
f 3//29 95//29 91//29
f 92//26 94//26 7//26
f 31//8 8//8 5//8
f 5//8 9//8 23//8
f 23//8 24//8 5//8
f 14//14 16//14 78//14
f 78//14 77//14 14//14
f 16//16 14//16 17//16
f 15//30 18//30 17//30
f 12//17 21//17 22//17
f 26//20 30//20 29//20
f 26//21 23//21 27//21
f 24//31 25//31 29//31
f 38//14 10//14 33//14
f 33//14 35//14 58//14
f 56//14 57//14 37//14
f 57//14 34//14 37//14
f 33//14 58//14 56//14
f 36//14 38//14 33//14
f 37//14 36//14 56//14
f 46//14 55//14 54//14
f 42//14 51//14 50//14
f 45//26 54//26 53//26
f 41//26 50//26 49//26
f 39//26 48//26 47//26
f 44//14 53//14 52//14
f 43//26 52//26 51//26
f 40//14 49//14 48//14
f 73//14 72//14 63//14
f 72//27 71//27 62//27
f 74//14 75//14 66//14
f 60//14 69//14 68//14
f 59//27 68//27 67//27
f 71//14 70//14 61//14
f 75//27 73//27 64//27
f 70//27 69//27 60//27
f 46//14 67//14 76//14
f 78//27 80//27 79//27
f 80//28 82//28 81//28
f 80//28 83//28 84//28
f 83//26 89//26 90//26
f 81//29 87//29 85//29
f 79//17 85//17 86//17
f 84//27 90//27 88//27
f 82//27 88//27 87//27
f 80//17 86//17 89//17
f 87//14 88//14 86//14
f 89//14 86//14 88//14
f 3//14 91//14 92//14
f 3//29 93//29 95//29
f 92//26 96//26 94//26
