# Blender v2.80 (sub 75) OBJ File: 'Door.blend'
# www.blender.org
v 0.093410 1.832272 -0.832272
v 0.093410 -1.832272 -0.832272
v 0.093410 1.832272 0.832272
v 0.093410 -1.832272 0.832272
v -0.150000 2.000000 -1.000000
v -0.150000 -2.000000 -1.000000
v -0.150000 2.000000 1.000000
v -0.150000 -2.000000 1.000000
v 0.150000 2.000000 -1.000000
v 0.150000 -2.000000 -1.000000
v 0.150000 2.000000 1.000000
v 0.150000 -2.000000 1.000000
v 0.093410 0.070000 -0.832272
v 0.093410 0.070000 0.832272
v 0.093410 1.832272 0.070000
v 0.093410 0.070000 0.070000
v 0.093410 -1.832272 0.070000
v 0.093410 1.832272 -0.070000
v 0.150000 1.902272 0.902272
v 0.093410 -0.070000 0.832272
v 0.093410 0.070000 -0.070000
v 0.150000 1.902272 -0.902272
v 0.093410 -0.070000 -0.832272
v 0.150000 1.902272 0.000000
v 0.093410 -0.070000 0.070000
v 0.150000 0.000000 0.902272
v 0.150000 -1.902272 0.902272
v 0.093410 -0.070000 -0.070000
v 0.093410 -1.832272 -0.070000
v 0.150000 0.000000 -0.902272
v 0.150000 -1.902272 -0.902272
v 0.150000 -1.902272 0.000000
v 0.150000 0.000000 0.000000
v 0.150000 0.000000 -0.832272
v 0.150000 0.000000 -0.070000
v 0.093410 0.070000 -0.683849
v 0.093410 -0.070000 -0.683849
v 0.150000 0.000000 -0.683849
v 0.246137 -0.070000 -0.832272
v 0.246137 0.000000 -0.832272
v 0.246137 0.070000 -0.832272
v 0.246137 0.070000 -0.683849
v 0.246137 -0.070000 -0.683849
v 0.246137 0.000000 -0.683849
vn 0.0000 1.0000 0.0000
vn 0.0000 0.0000 1.0000
vn -1.0000 0.0000 0.0000
vn 0.0000 -1.0000 0.0000
vn 1.0000 0.0000 0.0000
vn 0.0000 0.0000 -1.0000
vn 0.7777 -0.6287 0.0000
vn 0.7777 0.0000 -0.6287
vn 0.7777 0.6287 0.0000
vn 0.7777 0.0000 0.6287
s off
f 5//1 11//1 9//1
f 11//2 8//2 12//2
f 7//3 6//3 8//3
f 10//4 8//4 6//4
f 15//5 14//5 16//5
f 5//6 10//6 6//6
f 30//5 10//5 9//5
f 26//5 11//5 12//5
f 24//5 9//5 11//5
f 32//5 12//5 10//5
f 25//5 4//5 17//5
f 18//5 21//5 36//5
f 37//5 28//5 29//5
f 15//7 19//7 3//7
f 3//8 26//8 14//8
f 14//9 33//9 16//9
f 16//10 24//10 15//10
f 13//10 22//10 1//10
f 1//7 24//7 18//7
f 21//9 33//9 35//9
f 18//8 33//8 21//8
f 20//8 27//8 4//8
f 25//7 26//7 20//7
f 4//9 32//9 17//9
f 17//10 33//10 25//10
f 2//10 30//10 23//10
f 29//9 31//9 2//9
f 23//7 30//7 34//7
f 28//8 32//8 29//8
f 40//5 42//5 44//5
f 30//9 13//9 34//9
f 33//7 28//7 35//7
f 21//9 38//9 36//9
f 38//2 43//2 44//2
f 37//7 35//7 28//7
f 34//6 39//6 23//6
f 36//1 41//1 13//1
f 34//6 41//6 40//6
f 38//2 42//2 36//2
f 23//4 43//4 37//4
f 5//1 7//1 11//1
f 11//2 7//2 8//2
f 7//3 5//3 6//3
f 10//4 12//4 8//4
f 15//5 3//5 14//5
f 5//6 9//6 10//6
f 9//5 22//5 30//5
f 30//5 31//5 10//5
f 12//5 27//5 26//5
f 26//5 19//5 11//5
f 11//5 19//5 24//5
f 24//5 22//5 9//5
f 10//5 31//5 32//5
f 32//5 27//5 12//5
f 25//5 20//5 4//5
f 36//5 13//5 1//5
f 1//5 18//5 36//5
f 29//5 2//5 37//5
f 2//5 23//5 37//5
f 15//7 24//7 19//7
f 3//8 19//8 26//8
f 14//9 26//9 33//9
f 16//10 33//10 24//10
f 13//10 30//10 22//10
f 1//7 22//7 24//7
f 18//8 24//8 33//8
f 20//8 26//8 27//8
f 25//7 33//7 26//7
f 4//9 27//9 32//9
f 17//10 32//10 33//10
f 2//10 31//10 30//10
f 29//9 32//9 31//9
f 28//8 33//8 32//8
f 44//5 43//5 39//5
f 40//5 41//5 42//5
f 44//5 39//5 40//5
f 21//9 35//9 38//9
f 38//2 37//2 43//2
f 37//7 38//7 35//7
f 34//6 40//6 39//6
f 36//1 42//1 41//1
f 34//6 13//6 41//6
f 38//2 44//2 42//2
f 23//4 39//4 43//4
