# Blender v2.79 (sub 0) OBJ File: 'Map.blend'
# www.blender.org
v -5.043292 1.000000 3.690302
v 6.000000 0.000000 6.000000
v -5.512275 1.000000 3.548037
v 6.000000 1.000000 6.000000
v -2.400000 0.000000 -6.000000
v -2.400000 1.000000 -6.000000
v -6.000000 0.000000 -2.400000
v -6.000000 1.000000 -2.400000
v 6.000000 0.000000 -3.000000
v 6.000000 1.000000 -3.000000
v 3.030309 0.000000 -6.000000
v 3.030309 1.000000 -6.000000
v 3.030307 0.000000 -2.999993
v 3.030307 1.000000 -2.999993
v -1.000001 0.000000 1.000000
v -1.000001 0.000000 3.000000
v 1.000000 0.000000 3.000001
v 1.000000 0.000000 1.000000
v -1.000001 1.000000 1.000000
v -1.000001 1.000000 3.000000
v 1.000000 1.000000 3.000001
v 1.000000 1.000000 1.000000
v -3.500000 0.000000 6.000000
v -6.000000 0.000000 3.500000
v -3.500000 1.000000 6.000000
v -6.000000 1.000000 3.500000
v -5.512275 0.000000 3.548037
v -5.043292 0.000000 3.690302
v -4.611075 0.000000 3.921326
v -4.232233 0.000000 4.232233
v -3.921326 0.000000 4.611075
v -3.690302 0.000000 5.043292
v -3.548038 0.000000 5.512275
v -4.611075 1.000000 3.921326
v -4.232233 1.000000 4.232233
v -3.921326 1.000000 4.611075
v -3.690302 1.000000 5.043292
v -3.548038 1.000000 5.512275
v 6.000000 1.000000 2.914213
v 6.000000 1.000000 0.085786
v 6.000000 0.000000 2.914213
v 6.000000 0.000000 0.085786
v 4.585787 0.000000 1.500000
v 4.585787 1.000000 1.500000
vn 0.0000 0.0000 1.0000
vn 1.0000 0.0000 0.0000
vn 0.2903 0.0000 -0.9569
vn 0.7071 0.0000 0.7071
vn -1.0000 0.0000 -0.0000
vn 0.0000 1.0000 0.0000
vn 0.0000 0.0000 -1.0000
vn 0.6344 0.0000 -0.7730
vn 0.8819 0.0000 -0.4714
vn 0.9569 0.0000 -0.2903
vn 0.7730 0.0000 -0.6344
vn 0.4714 0.0000 -0.8819
vn 0.9952 0.0000 -0.0980
vn 0.0980 0.0000 -0.9952
vn -0.7071 0.0000 0.7071
vn -0.7071 0.0000 -0.7071
s off
f 12//1 5//1 11//1
f 8//2 24//2 7//2
f 27//3 1//3 28//3
f 7//4 6//4 8//4
f 4//5 41//5 2//5
f 13//6 18//6 43//6
f 11//5 14//5 12//5
f 13//1 10//1 14//1
f 16//6 29//6 30//6
f 15//7 22//7 18//7
f 20//6 22//6 19//6
f 17//1 20//1 16//1
f 18//2 21//2 17//2
f 16//5 19//5 15//5
f 29//8 35//8 30//8
f 31//9 37//9 32//9
f 25//7 2//7 23//7
f 32//10 38//10 33//10
f 30//11 36//11 31//11
f 28//12 34//12 29//12
f 38//13 23//13 33//13
f 3//14 24//14 26//14
f 44//15 41//15 39//15
f 40//5 9//5 42//5
f 44//16 42//16 43//16
f 12//1 6//1 5//1
f 8//2 26//2 24//2
f 27//3 3//3 1//3
f 7//4 5//4 6//4
f 4//5 39//5 41//5
f 42//6 9//6 13//6
f 13//6 11//6 5//6
f 5//6 15//6 13//6
f 15//6 18//6 13//6
f 18//6 17//6 43//6
f 17//6 2//6 41//6
f 43//6 17//6 41//6
f 43//6 42//6 13//6
f 11//5 13//5 14//5
f 13//1 9//1 10//1
f 23//6 2//6 17//6
f 16//6 15//6 29//6
f 15//6 5//6 7//6
f 23//6 17//6 16//6
f 33//6 23//6 16//6
f 15//6 7//6 28//6
f 7//6 24//6 27//6
f 7//6 27//6 28//6
f 32//6 33//6 16//6
f 31//6 32//6 16//6
f 15//6 28//6 29//6
f 30//6 31//6 16//6
f 15//7 19//7 22//7
f 20//6 21//6 22//6
f 17//1 21//1 20//1
f 18//2 22//2 21//2
f 16//5 20//5 19//5
f 29//8 34//8 35//8
f 31//9 36//9 37//9
f 25//7 4//7 2//7
f 32//10 37//10 38//10
f 30//11 35//11 36//11
f 28//12 1//12 34//12
f 38//13 25//13 23//13
f 3//14 27//14 24//14
f 44//15 43//15 41//15
f 40//5 10//5 9//5
f 44//16 40//16 42//16
