# Blender v2.79 (sub 0) OBJ File: 'Map.blend'
# www.blender.org
v -6.000000 0.000000 5.000000
v -6.000000 1.000000 5.000000
v -6.000000 0.000000 -5.000000
v -6.000000 1.000000 -5.000000
v 6.000000 0.000000 5.000000
v 6.000000 1.000000 5.000000
v 6.000000 0.000000 -5.000000
v 6.000000 1.000000 -5.000000
v 4.649184 0.000000 -5.000000
v -4.649184 0.000000 -5.000000
v 4.444570 0.000000 -4.848248
v 3.771182 0.000000 -4.444633
v 3.061474 0.000000 -4.108967
v 2.322284 0.000000 -3.844480
v 1.560730 0.000000 -3.653719
v 0.784143 0.000000 -3.538524
v 0.000006 0.000000 -3.500001
v -0.784131 0.000000 -3.538522
v -1.560718 0.000000 -3.653717
v -2.322273 0.000000 -3.844476
v -3.061463 0.000000 -4.108962
v -3.771171 0.000000 -4.444629
v -4.444558 0.000000 -4.848240
v 4.649184 1.000000 -5.000000
v -4.649184 1.000000 -5.000000
v 4.444570 1.000000 -4.848248
v 3.771182 1.000000 -4.444633
v 3.061474 1.000000 -4.108967
v 2.322284 1.000000 -3.844480
v 1.560730 1.000000 -3.653719
v 0.784143 1.000000 -3.538524
v 0.000006 1.000000 -3.500001
v -0.784131 1.000000 -3.538522
v -1.560718 1.000000 -3.653717
v -2.322273 1.000000 -3.844476
v -3.061463 1.000000 -4.108962
v -3.771171 1.000000 -4.444629
v -4.444558 1.000000 -4.848240
v 2.750001 0.000000 1.250000
v 2.823515 0.000000 1.253611
v 2.896321 0.000000 1.264411
v 2.967715 0.000000 1.282295
v 3.037014 0.000000 1.307091
v 3.103550 0.000000 1.338560
v 3.166680 0.000000 1.376399
v 3.225796 0.000000 1.420243
v 3.280332 0.000000 1.469671
v 3.329758 0.000000 1.524206
v 3.373605 0.000000 1.583323
v 3.411441 0.000000 1.646454
v 3.442910 0.000000 1.712989
v 3.467706 0.000000 1.782287
v 3.485589 0.000000 1.853683
v 3.496390 0.000000 1.926488
v 3.500001 0.000000 2.000001
v 3.496388 0.000000 2.073513
v 3.485589 0.000000 2.146317
v 3.467705 0.000000 2.217714
v 3.442909 0.000000 2.287013
v 3.411441 0.000000 2.353548
v 3.373602 0.000000 2.416677
v 3.329758 0.000000 2.475795
v 3.280332 0.000000 2.530330
v 3.225796 0.000000 2.579757
v 3.166679 0.000000 2.623602
v 3.103549 0.000000 2.661441
v 3.037013 0.000000 2.692910
v 2.967714 0.000000 2.717705
v 2.896318 0.000000 2.735589
v 2.823513 0.000000 2.746389
v 2.750001 0.000000 2.750000
v 2.676488 0.000000 2.746389
v 2.603683 0.000000 2.735590
v 2.532287 0.000000 2.717705
v 2.462988 0.000000 2.692910
v 2.396453 0.000000 2.661442
v 2.333322 0.000000 2.623602
v 2.274205 0.000000 2.579758
v 2.219671 0.000000 2.530330
v 2.170243 0.000000 2.475795
v 2.126399 0.000000 2.416678
v 2.088558 0.000000 2.353548
v 2.057091 0.000000 2.287013
v 2.032295 0.000000 2.217714
v 2.014411 0.000000 2.146318
v 2.003611 0.000000 2.073513
v 2.000000 0.000000 2.000000
v 2.003611 0.000000 1.926487
v 2.014411 0.000000 1.853682
v 2.032295 0.000000 1.782287
v 2.057091 0.000000 1.712988
v 2.088558 0.000000 1.646453
v 2.126397 0.000000 1.583322
v 2.170243 0.000000 1.524205
v 2.219670 0.000000 1.469670
v 2.274205 0.000000 1.420242
v 2.333322 0.000000 1.376398
v 2.396451 0.000000 1.338559
v 2.462987 0.000000 1.307090
v 2.532287 0.000000 1.282295
v 2.603683 0.000000 1.264411
v 2.676488 0.000000 1.253611
v -2.750001 0.000000 1.249999
v -2.676484 0.000000 1.253611
v -2.603679 0.000000 1.264411
v -2.532285 0.000000 1.282295
v -2.462985 0.000000 1.307090
v -2.396451 0.000000 1.338561
v -2.333322 0.000000 1.376399
v -2.274204 0.000000 1.420243
v -2.219668 0.000000 1.469670
v -2.170241 0.000000 1.524205
v -2.126396 0.000000 1.583323
v -2.088558 0.000000 1.646453
v -2.057089 0.000000 1.712988
v -2.032294 0.000000 1.782287
v -2.014411 0.000000 1.853682
v -2.003612 0.000000 1.926487
v -1.999999 0.000000 2.000000
v -2.003611 0.000000 2.073513
v -2.014411 0.000000 2.146317
v -2.032295 0.000000 2.217713
v -2.057090 0.000000 2.287011
v -2.088558 0.000000 2.353547
v -2.126397 0.000000 2.416677
v -2.170242 0.000000 2.475794
v -2.219668 0.000000 2.530329
v -2.274203 0.000000 2.579757
v -2.333320 0.000000 2.623600
v -2.396451 0.000000 2.661440
v -2.462986 0.000000 2.692909
v -2.532285 0.000000 2.717705
v -2.603681 0.000000 2.735589
v -2.676487 0.000000 2.746390
v -2.749999 0.000000 2.750000
v -2.823513 0.000000 2.746389
v -2.896317 0.000000 2.735590
v -2.967713 0.000000 2.717705
v -3.037012 0.000000 2.692909
v -3.103547 0.000000 2.661440
v -3.166678 0.000000 2.623601
v -3.225794 0.000000 2.579758
v -3.280329 0.000000 2.530330
v -3.329758 0.000000 2.475794
v -3.373602 0.000000 2.416677
v -3.411441 0.000000 2.353548
v -3.442910 0.000000 2.287014
v -3.467706 0.000000 2.217714
v -3.485589 0.000000 2.146317
v -3.496387 0.000000 2.073512
v -3.500000 0.000000 2.000000
v -3.496387 0.000000 1.926486
v -3.485589 0.000000 1.853683
v -3.467706 0.000000 1.782287
v -3.442910 0.000000 1.712988
v -3.411442 0.000000 1.646453
v -3.373603 0.000000 1.583322
v -3.329759 0.000000 1.524205
v -3.280331 0.000000 1.469670
v -3.225795 0.000000 1.420242
v -3.166678 0.000000 1.376398
v -3.103549 0.000000 1.338559
v -3.037014 0.000000 1.307091
v -2.967713 0.000000 1.282294
v -2.896317 0.000000 1.264411
v -2.823513 0.000000 1.253611
v -2.750001 1.000000 1.249999
v -2.676484 1.000000 1.253611
v -2.603679 1.000000 1.264411
v -2.532285 1.000000 1.282295
v -2.462985 1.000000 1.307090
v -2.396451 1.000000 1.338561
v -2.333322 1.000000 1.376399
v -2.274204 1.000000 1.420243
v -2.219668 1.000000 1.469670
v -2.170241 1.000000 1.524205
v -2.126396 1.000000 1.583323
v -2.088558 1.000000 1.646453
v -2.057089 1.000000 1.712988
v -2.032294 1.000000 1.782287
v -2.014411 1.000000 1.853682
v -2.003612 1.000000 1.926487
v -1.999999 1.000000 2.000000
v -2.003611 1.000000 2.073513
v -2.014411 1.000000 2.146317
v -2.032295 1.000000 2.217713
v -2.057090 1.000000 2.287011
v -2.088558 1.000000 2.353547
v -2.126397 1.000000 2.416677
v -2.170242 1.000000 2.475794
v -2.219668 1.000000 2.530329
v -2.274203 1.000000 2.579757
v -2.333320 1.000000 2.623600
v -2.396451 1.000000 2.661440
v -2.462986 1.000000 2.692909
v -2.532285 1.000000 2.717705
v -2.603681 1.000000 2.735589
v -2.676487 1.000000 2.746390
v -2.749999 1.000000 2.750000
v -2.823513 1.000000 2.746389
v -2.896317 1.000000 2.735590
v -2.967713 1.000000 2.717705
v -3.037012 1.000000 2.692909
v -3.103547 1.000000 2.661440
v -3.166678 1.000000 2.623601
v -3.225794 1.000000 2.579758
v -3.280329 1.000000 2.530330
v -3.329758 1.000000 2.475794
v -3.373602 1.000000 2.416677
v -3.411441 1.000000 2.353548
v -3.442910 1.000000 2.287014
v -3.467706 1.000000 2.217714
v -3.485589 1.000000 2.146317
v -3.496387 1.000000 2.073512
v -3.500000 1.000000 2.000000
v -3.496387 1.000000 1.926486
v -3.485589 1.000000 1.853683
v -3.467706 1.000000 1.782287
v -3.442910 1.000000 1.712988
v -3.411442 1.000000 1.646453
v -3.373603 1.000000 1.583322
v -3.329759 1.000000 1.524205
v -3.280331 1.000000 1.469670
v -3.225795 1.000000 1.420242
v -3.166678 1.000000 1.376398
v -3.103549 1.000000 1.338559
v -3.037014 1.000000 1.307091
v -2.967713 1.000000 1.282294
v -2.896317 1.000000 1.264411
v -2.823513 1.000000 1.253611
v 2.750001 1.000000 1.250000
v 2.823515 1.000000 1.253611
v 2.896321 1.000000 1.264411
v 2.967715 1.000000 1.282295
v 3.037014 1.000000 1.307091
v 3.103550 1.000000 1.338560
v 3.166680 1.000000 1.376399
v 3.225796 1.000000 1.420243
v 3.280332 1.000000 1.469671
v 3.329758 1.000000 1.524206
v 3.373605 1.000000 1.583323
v 3.411441 1.000000 1.646454
v 3.442910 1.000000 1.712989
v 3.467706 1.000000 1.782287
v 3.485589 1.000000 1.853683
v 3.496390 1.000000 1.926488
v 3.500001 1.000000 2.000001
v 3.496388 1.000000 2.073513
v 3.485589 1.000000 2.146317
v 3.467705 1.000000 2.217714
v 3.442909 1.000000 2.287013
v 3.411441 1.000000 2.353548
v 3.373602 1.000000 2.416677
v 3.329758 1.000000 2.475795
v 3.280332 1.000000 2.530330
v 3.225796 1.000000 2.579757
v 3.166679 1.000000 2.623602
v 3.103549 1.000000 2.661441
v 3.037013 1.000000 2.692910
v 2.967714 1.000000 2.717705
v 2.896318 1.000000 2.735589
v 2.823513 1.000000 2.746389
v 2.750001 1.000000 2.750000
v 2.676488 1.000000 2.746389
v 2.603683 1.000000 2.735590
v 2.532287 1.000000 2.717705
v 2.462988 1.000000 2.692910
v 2.396453 1.000000 2.661442
v 2.333322 1.000000 2.623602
v 2.274205 1.000000 2.579758
v 2.219671 1.000000 2.530330
v 2.170243 1.000000 2.475795
v 2.126399 1.000000 2.416678
v 2.088558 1.000000 2.353548
v 2.057091 1.000000 2.287013
v 2.032295 1.000000 2.217714
v 2.014411 1.000000 2.146318
v 2.003611 1.000000 2.073513
v 2.000000 1.000000 2.000000
v 2.003611 1.000000 1.926487
v 2.014411 1.000000 1.853682
v 2.032295 1.000000 1.782287
v 2.057091 1.000000 1.712988
v 2.088558 1.000000 1.646453
v 2.126397 1.000000 1.583322
v 2.170243 1.000000 1.524205
v 2.219670 1.000000 1.469670
v 2.274205 1.000000 1.420242
v 2.333322 1.000000 1.376398
v 2.396451 1.000000 1.338559
v 2.462987 1.000000 1.307090
v 2.532287 1.000000 1.282295
v 2.603683 1.000000 1.264411
v 2.676488 1.000000 1.253611
vn 1.0000 0.0000 0.0000
vn -1.0000 0.0000 0.0000
vn 0.0000 0.0000 -1.0000
vn 0.0000 1.0000 0.0000
vn -0.1467 0.0000 0.9892
vn 0.5141 0.0000 0.8577
vn -0.2430 0.0000 0.9700
vn 0.4276 0.0000 0.9040
vn -0.3369 0.0000 0.9415
vn 0.3369 0.0000 0.9415
vn -0.4276 0.0000 0.9040
vn 0.2430 0.0000 0.9700
vn -0.5141 0.0000 0.8577
vn 0.1467 0.0000 0.9892
vn -0.5957 0.0000 0.8032
vn 0.0491 0.0000 0.9988
vn -0.0491 0.0000 0.9988
vn 0.5957 0.0000 0.8032
vn 0.0000 0.0000 1.0000
vn 0.9700 0.0000 0.2430
vn -0.9700 0.0000 0.2430
vn 0.9415 0.0000 0.3369
vn -0.9892 0.0000 0.1467
vn 0.9040 0.0000 0.4275
vn -0.9988 0.0000 0.0491
vn 0.8577 0.0000 0.5141
vn -0.9988 0.0000 -0.0491
vn 0.8032 0.0000 0.5957
vn -0.9892 0.0000 -0.1467
vn 0.7410 0.0000 0.6716
vn -0.9700 0.0000 -0.2430
vn 0.6716 0.0000 0.7409
vn -0.9415 0.0000 -0.3369
vn -0.9040 0.0000 -0.4276
vn 0.0491 0.0000 -0.9988
vn -0.8577 0.0000 -0.5141
vn 0.1467 0.0000 -0.9892
vn -0.8032 0.0000 -0.5957
vn 0.2430 0.0000 -0.9700
vn -0.7409 0.0000 -0.6716
vn 0.3369 0.0000 -0.9415
vn -0.6716 0.0000 -0.7410
vn 0.1468 0.0000 0.9892
vn 0.4276 0.0000 -0.9040
vn -0.5957 0.0000 -0.8032
vn 0.0490 0.0000 0.9988
vn 0.5141 0.0000 -0.8577
vn -0.5141 0.0000 -0.8577
vn -0.0490 0.0000 0.9988
vn 0.5957 0.0000 -0.8032
vn -0.4276 0.0000 -0.9040
vn 0.6716 0.0000 -0.7410
vn -0.3369 0.0000 -0.9415
vn 0.7410 0.0000 -0.6715
vn -0.2430 0.0000 -0.9700
vn 0.8032 0.0000 -0.5957
vn -0.1467 0.0000 -0.9892
vn 0.8577 0.0000 -0.5141
vn -0.0491 0.0000 -0.9988
vn 0.9040 0.0000 -0.4276
vn 0.9415 0.0000 -0.3369
vn -0.6716 0.0000 0.7409
vn 0.9700 0.0000 -0.2430
vn -0.7409 0.0000 0.6716
vn 0.9892 0.0000 -0.1467
vn -0.8032 0.0000 0.5957
vn 0.9988 0.0000 -0.0491
vn -0.8577 0.0000 0.5141
vn 0.9988 0.0000 0.0491
vn -0.9040 0.0000 0.4276
vn 0.9892 0.0000 0.1467
vn -0.9415 0.0000 0.3369
vn -0.4275 0.0000 -0.9040
vn 0.6715 0.0000 -0.7410
vn 0.9892 0.0000 -0.1468
vn -0.9040 0.0000 0.4275
vn 0.7410 0.0000 0.6715
vn 0.6715 0.0000 0.7410
vn -0.9040 0.0000 -0.4275
vn 0.4275 0.0000 0.9040
vn -0.7410 0.0000 -0.6716
vn -0.6716 0.0000 -0.7409
vn 0.7410 0.0000 -0.6716
vn -0.6716 0.0000 0.7410
s off
f 3//1 2//1 1//1
f 5//2 8//2 7//2
f 1//3 6//3 5//3
f 92//4 93//4 114//4
f 18//5 34//5 19//5
f 11//6 27//6 12//6
f 19//7 35//7 20//7
f 12//8 28//8 13//8
f 20//9 36//9 21//9
f 13//10 29//10 14//10
f 21//11 37//11 22//11
f 14//12 30//12 15//12
f 22//13 38//13 23//13
f 15//14 31//14 16//14
f 23//15 25//15 10//15
f 16//16 32//16 17//16
f 17//17 33//17 18//17
f 9//18 26//18 11//18
f 10//19 4//19 3//19
f 24//19 7//19 8//19
f 5//4 72//4 73//4
f 121//20 186//20 122//20
f 135//4 136//4 1//4
f 148//21 213//21 149//21
f 122//22 187//22 123//22
f 149//23 214//23 150//23
f 123//24 188//24 124//24
f 150//25 215//25 151//25
f 124//26 189//26 125//26
f 151//27 216//27 152//27
f 125//28 190//28 126//28
f 152//29 217//29 153//29
f 126//30 191//30 127//30
f 153//31 218//31 154//31
f 127//32 192//32 128//32
f 154//33 219//33 155//33
f 128//18 193//18 129//18
f 155//34 220//34 156//34
f 129//6 194//6 130//6
f 103//35 168//35 104//35
f 156//36 221//36 157//36
f 130//8 195//8 131//8
f 104//37 169//37 105//37
f 157//38 222//38 158//38
f 131//10 196//10 132//10
f 105//39 170//39 106//39
f 158//40 223//40 159//40
f 132//12 197//12 133//12
f 106//41 171//41 107//41
f 159//42 224//42 160//42
f 133//43 198//43 134//43
f 107//44 172//44 108//44
f 160//45 225//45 161//45
f 134//46 199//46 135//46
f 108//47 173//47 109//47
f 161//48 226//48 162//48
f 135//49 200//49 136//49
f 109//50 174//50 110//50
f 162//51 227//51 163//51
f 136//5 201//5 137//5
f 110//52 175//52 111//52
f 163//53 228//53 164//53
f 137//7 202//7 138//7
f 111//54 176//54 112//54
f 164//55 229//55 165//55
f 138//9 203//9 139//9
f 112//56 177//56 113//56
f 165//57 230//57 166//57
f 139//11 204//11 140//11
f 113//58 178//58 114//58
f 166//59 167//59 103//59
f 140//13 205//13 141//13
f 114//60 179//60 115//60
f 141//15 206//15 142//15
f 115//61 180//61 116//61
f 142//62 207//62 143//62
f 116//63 181//63 117//63
f 143//64 208//64 144//64
f 117//65 182//65 118//65
f 144//66 209//66 145//66
f 118//67 183//67 119//67
f 145//68 210//68 146//68
f 119//69 184//69 120//69
f 146//70 211//70 147//70
f 120//71 185//71 121//71
f 147//72 212//72 148//72
f 97//48 290//48 98//48
f 71//17 264//17 72//17
f 45//50 238//50 46//50
f 98//73 291//73 99//73
f 72//5 265//5 73//5
f 46//74 239//74 47//74
f 99//53 292//53 100//53
f 73//7 266//7 74//7
f 47//54 240//54 48//54
f 100//55 293//55 101//55
f 74//9 267//9 75//9
f 48//56 241//56 49//56
f 101//57 294//57 102//57
f 75//11 268//11 76//11
f 49//58 242//58 50//58
f 102//59 231//59 39//59
f 76//13 269//13 77//13
f 50//60 243//60 51//60
f 77//15 270//15 78//15
f 51//61 244//61 52//61
f 78//62 271//62 79//62
f 52//63 245//63 53//63
f 79//64 272//64 80//64
f 53//75 246//75 54//75
f 80//66 273//66 81//66
f 54//67 247//67 55//67
f 81//68 274//68 82//68
f 55//69 248//69 56//69
f 82//76 275//76 83//76
f 56//71 249//71 57//71
f 83//72 276//72 84//72
f 57//20 250//20 58//20
f 84//21 277//21 85//21
f 58//22 251//22 59//22
f 85//23 278//23 86//23
f 59//24 252//24 60//24
f 86//25 279//25 87//25
f 60//26 253//26 61//26
f 87//27 280//27 88//27
f 61//28 254//28 62//28
f 88//29 281//29 89//29
f 62//77 255//77 63//77
f 89//31 282//31 90//31
f 63//78 256//78 64//78
f 90//33 283//33 91//33
f 64//18 257//18 65//18
f 91//79 284//79 92//79
f 65//6 258//6 66//6
f 39//35 232//35 40//35
f 92//36 285//36 93//36
f 66//80 259//80 67//80
f 40//37 233//37 41//37
f 93//38 286//38 94//38
f 67//10 260//10 68//10
f 41//39 234//39 42//39
f 94//81 287//81 95//81
f 68//12 261//12 69//12
f 42//41 235//41 43//41
f 95//82 288//82 96//82
f 69//14 262//14 70//14
f 43//44 236//44 44//44
f 96//45 289//45 97//45
f 70//16 263//16 71//16
f 44//47 237//47 45//47
f 234//4 233//4 292//4
f 170//4 169//4 228//4
f 3//1 4//1 2//1
f 5//2 6//2 8//2
f 1//3 2//3 6//3
f 10//4 3//4 23//4
f 3//4 1//4 154//4
f 23//4 3//4 22//4
f 1//4 151//4 152//4
f 1//4 152//4 153//4
f 158//4 3//4 157//4
f 3//4 158//4 159//4
f 22//4 3//4 161//4
f 1//4 153//4 154//4
f 154//4 155//4 3//4
f 21//4 22//4 162//4
f 20//4 21//4 164//4
f 3//4 159//4 160//4
f 155//4 156//4 3//4
f 156//4 157//4 3//4
f 19//4 20//4 103//4
f 3//4 160//4 161//4
f 18//4 19//4 105//4
f 22//4 161//4 162//4
f 17//4 18//4 108//4
f 21//4 162//4 163//4
f 16//4 17//4 98//4
f 21//4 163//4 164//4
f 15//4 16//4 101//4
f 20//4 164//4 165//4
f 20//4 165//4 166//4
f 14//4 15//4 39//4
f 20//4 166//4 103//4
f 13//4 14//4 42//4
f 19//4 103//4 104//4
f 19//4 104//4 105//4
f 12//4 13//4 44//4
f 18//4 105//4 106//4
f 7//4 9//4 11//4
f 11//4 12//4 7//4
f 18//4 106//4 107//4
f 18//4 107//4 108//4
f 5//4 7//4 52//4
f 5//4 52//4 53//4
f 54//4 55//4 5//4
f 53//4 54//4 5//4
f 17//4 108//4 109//4
f 52//4 7//4 51//4
f 51//4 7//4 50//4
f 17//4 109//4 110//4
f 101//4 16//4 100//4
f 102//4 15//4 101//4
f 50//4 7//4 49//4
f 49//4 7//4 48//4
f 15//4 102//4 39//4
f 48//4 7//4 47//4
f 47//4 7//4 46//4
f 14//4 39//4 40//4
f 14//4 40//4 41//4
f 46//4 7//4 45//4
f 45//4 7//4 12//4
f 17//4 110//4 96//4
f 110//4 111//4 96//4
f 100//4 16//4 99//4
f 44//4 45//4 12//4
f 111//4 112//4 95//4
f 99//4 16//4 98//4
f 112//4 113//4 94//4
f 43//4 44//4 13//4
f 42//4 43//4 13//4
f 113//4 114//4 93//4
f 98//4 17//4 97//4
f 114//4 115//4 92//4
f 41//4 42//4 14//4
f 97//4 17//4 96//4
f 115//4 116//4 91//4
f 116//4 117//4 90//4
f 117//4 118//4 89//4
f 96//4 111//4 95//4
f 118//4 119//4 88//4
f 119//4 87//4 88//4
f 118//4 88//4 89//4
f 89//4 90//4 117//4
f 95//4 112//4 94//4
f 94//4 113//4 93//4
f 90//4 91//4 116//4
f 91//4 92//4 115//4
f 18//5 33//5 34//5
f 11//6 26//6 27//6
f 19//7 34//7 35//7
f 12//8 27//8 28//8
f 20//9 35//9 36//9
f 13//10 28//10 29//10
f 21//11 36//11 37//11
f 14//12 29//12 30//12
f 22//13 37//13 38//13
f 15//14 30//14 31//14
f 23//15 38//15 25//15
f 16//16 31//16 32//16
f 17//17 32//17 33//17
f 9//18 24//18 26//18
f 10//19 25//19 4//19
f 24//19 9//19 7//19
f 5//4 55//4 56//4
f 5//4 56//4 57//4
f 86//4 87//4 1//4
f 85//4 86//4 1//4
f 5//4 57//4 58//4
f 5//4 58//4 59//4
f 84//4 85//4 1//4
f 83//4 84//4 1//4
f 5//4 59//4 60//4
f 5//4 60//4 61//4
f 82//4 83//4 1//4
f 81//4 82//4 1//4
f 5//4 61//4 62//4
f 5//4 62//4 63//4
f 80//4 81//4 1//4
f 79//4 80//4 1//4
f 5//4 63//4 64//4
f 5//4 64//4 65//4
f 78//4 79//4 1//4
f 77//4 78//4 1//4
f 5//4 65//4 66//4
f 5//4 66//4 67//4
f 77//4 1//4 76//4
f 1//4 5//4 74//4
f 76//4 1//4 75//4
f 75//4 1//4 74//4
f 5//4 67//4 68//4
f 5//4 68//4 69//4
f 5//4 69//4 70//4
f 5//4 70//4 71//4
f 73//4 74//4 5//4
f 5//4 71//4 72//4
f 121//20 185//20 186//20
f 87//4 119//4 120//4
f 87//4 120//4 121//4
f 150//4 151//4 1//4
f 149//4 150//4 1//4
f 87//4 121//4 122//4
f 87//4 122//4 123//4
f 148//4 149//4 1//4
f 147//4 148//4 1//4
f 87//4 123//4 124//4
f 87//4 124//4 125//4
f 146//4 147//4 1//4
f 145//4 146//4 1//4
f 87//4 125//4 126//4
f 87//4 126//4 127//4
f 144//4 145//4 1//4
f 143//4 144//4 1//4
f 87//4 127//4 128//4
f 87//4 128//4 129//4
f 142//4 143//4 1//4
f 141//4 142//4 1//4
f 1//4 87//4 131//4
f 87//4 129//4 130//4
f 87//4 130//4 131//4
f 140//4 141//4 1//4
f 139//4 140//4 1//4
f 1//4 131//4 132//4
f 138//4 139//4 1//4
f 137//4 138//4 1//4
f 1//4 132//4 133//4
f 1//4 133//4 134//4
f 136//4 137//4 1//4
f 1//4 134//4 135//4
f 148//21 212//21 213//21
f 122//22 186//22 187//22
f 149//23 213//23 214//23
f 123//24 187//24 188//24
f 150//25 214//25 215//25
f 124//26 188//26 189//26
f 151//27 215//27 216//27
f 125//28 189//28 190//28
f 152//29 216//29 217//29
f 126//30 190//30 191//30
f 153//31 217//31 218//31
f 127//32 191//32 192//32
f 154//33 218//33 219//33
f 128//18 192//18 193//18
f 155//34 219//34 220//34
f 129//6 193//6 194//6
f 103//35 167//35 168//35
f 156//36 220//36 221//36
f 130//8 194//8 195//8
f 104//37 168//37 169//37
f 157//38 221//38 222//38
f 131//10 195//10 196//10
f 105//39 169//39 170//39
f 158//40 222//40 223//40
f 132//12 196//12 197//12
f 106//41 170//41 171//41
f 159//42 223//42 224//42
f 133//43 197//43 198//43
f 107//44 171//44 172//44
f 160//45 224//45 225//45
f 134//46 198//46 199//46
f 108//47 172//47 173//47
f 161//48 225//48 226//48
f 135//49 199//49 200//49
f 109//50 173//50 174//50
f 162//51 226//51 227//51
f 136//5 200//5 201//5
f 110//52 174//52 175//52
f 163//53 227//53 228//53
f 137//7 201//7 202//7
f 111//83 175//83 176//83
f 164//55 228//55 229//55
f 138//9 202//9 203//9
f 112//56 176//56 177//56
f 165//57 229//57 230//57
f 139//11 203//11 204//11
f 113//58 177//58 178//58
f 166//59 230//59 167//59
f 140//13 204//13 205//13
f 114//60 178//60 179//60
f 141//15 205//15 206//15
f 115//61 179//61 180//61
f 142//84 206//84 207//84
f 116//63 180//63 181//63
f 143//64 207//64 208//64
f 117//65 181//65 182//65
f 144//66 208//66 209//66
f 118//67 182//67 183//67
f 145//68 209//68 210//68
f 119//69 183//69 184//69
f 146//70 210//70 211//70
f 120//71 184//71 185//71
f 147//72 211//72 212//72
f 97//48 289//48 290//48
f 71//17 263//17 264//17
f 45//50 237//50 238//50
f 98//73 290//73 291//73
f 72//5 264//5 265//5
f 46//74 238//74 239//74
f 99//53 291//53 292//53
f 73//7 265//7 266//7
f 47//54 239//54 240//54
f 100//55 292//55 293//55
f 74//9 266//9 267//9
f 48//56 240//56 241//56
f 101//57 293//57 294//57
f 75//11 267//11 268//11
f 49//58 241//58 242//58
f 102//59 294//59 231//59
f 76//13 268//13 269//13
f 50//60 242//60 243//60
f 77//15 269//15 270//15
f 51//61 243//61 244//61
f 78//62 270//62 271//62
f 52//63 244//63 245//63
f 79//64 271//64 272//64
f 53//75 245//75 246//75
f 80//66 272//66 273//66
f 54//67 246//67 247//67
f 81//68 273//68 274//68
f 55//69 247//69 248//69
f 82//76 274//76 275//76
f 56//71 248//71 249//71
f 83//72 275//72 276//72
f 57//20 249//20 250//20
f 84//21 276//21 277//21
f 58//22 250//22 251//22
f 85//23 277//23 278//23
f 59//24 251//24 252//24
f 86//25 278//25 279//25
f 60//26 252//26 253//26
f 87//27 279//27 280//27
f 61//28 253//28 254//28
f 88//29 280//29 281//29
f 62//77 254//77 255//77
f 89//31 281//31 282//31
f 63//78 255//78 256//78
f 90//33 282//33 283//33
f 64//18 256//18 257//18
f 91//79 283//79 284//79
f 65//6 257//6 258//6
f 39//35 231//35 232//35
f 92//36 284//36 285//36
f 66//80 258//80 259//80
f 40//37 232//37 233//37
f 93//38 285//38 286//38
f 67//10 259//10 260//10
f 41//39 233//39 234//39
f 94//81 286//81 287//81
f 68//12 260//12 261//12
f 42//41 234//41 235//41
f 95//42 287//42 288//42
f 69//14 261//14 262//14
f 43//44 235//44 236//44
f 96//45 288//45 289//45
f 70//16 262//16 263//16
f 44//47 236//47 237//47
f 232//4 231//4 294//4
f 294//4 293//4 232//4
f 293//4 292//4 233//4
f 232//4 293//4 233//4
f 292//4 291//4 235//4
f 291//4 290//4 236//4
f 290//4 289//4 236//4
f 289//4 288//4 237//4
f 236//4 289//4 237//4
f 288//4 287//4 239//4
f 287//4 286//4 240//4
f 286//4 285//4 240//4
f 285//4 284//4 241//4
f 240//4 285//4 241//4
f 284//4 283//4 242//4
f 283//4 282//4 243//4
f 282//4 281//4 244//4
f 281//4 280//4 245//4
f 280//4 279//4 247//4
f 279//4 278//4 248//4
f 278//4 277//4 248//4
f 277//4 276//4 249//4
f 248//4 277//4 249//4
f 276//4 275//4 250//4
f 275//4 274//4 251//4
f 274//4 273//4 252//4
f 273//4 272//4 253//4
f 272//4 271//4 255//4
f 271//4 270//4 256//4
f 270//4 269//4 256//4
f 269//4 268//4 257//4
f 256//4 269//4 257//4
f 268//4 267//4 259//4
f 267//4 266//4 260//4
f 266//4 265//4 260//4
f 265//4 264//4 261//4
f 260//4 265//4 261//4
f 264//4 263//4 262//4
f 262//4 261//4 264//4
f 260//4 259//4 267//4
f 259//4 258//4 268//4
f 258//4 257//4 268//4
f 256//4 255//4 271//4
f 255//4 254//4 272//4
f 254//4 253//4 272//4
f 253//4 252//4 273//4
f 252//4 251//4 274//4
f 251//4 250//4 275//4
f 250//4 249//4 276//4
f 248//4 247//4 279//4
f 247//4 246//4 280//4
f 246//4 245//4 280//4
f 245//4 244//4 281//4
f 244//4 243//4 282//4
f 243//4 242//4 283//4
f 242//4 241//4 284//4
f 240//4 239//4 287//4
f 239//4 238//4 288//4
f 238//4 237//4 288//4
f 236//4 235//4 291//4
f 235//4 234//4 292//4
f 168//4 167//4 230//4
f 230//4 229//4 168//4
f 229//4 228//4 169//4
f 168//4 229//4 169//4
f 228//4 227//4 171//4
f 227//4 226//4 172//4
f 226//4 225//4 172//4
f 225//4 224//4 173//4
f 172//4 225//4 173//4
f 224//4 223//4 175//4
f 223//4 222//4 176//4
f 222//4 221//4 176//4
f 221//4 220//4 177//4
f 176//4 221//4 177//4
f 220//4 219//4 178//4
f 219//4 218//4 179//4
f 218//4 217//4 180//4
f 217//4 216//4 181//4
f 216//4 215//4 183//4
f 215//4 214//4 184//4
f 214//4 213//4 184//4
f 213//4 212//4 185//4
f 184//4 213//4 185//4
f 212//4 211//4 186//4
f 211//4 210//4 187//4
f 210//4 209//4 188//4
f 209//4 208//4 189//4
f 208//4 207//4 191//4
f 207//4 206//4 192//4
f 206//4 205//4 192//4
f 205//4 204//4 193//4
f 192//4 205//4 193//4
f 204//4 203//4 195//4
f 203//4 202//4 196//4
f 202//4 201//4 196//4
f 201//4 200//4 197//4
f 196//4 201//4 197//4
f 200//4 199//4 198//4
f 198//4 197//4 200//4
f 196//4 195//4 203//4
f 195//4 194//4 204//4
f 194//4 193//4 204//4
f 192//4 191//4 207//4
f 191//4 190//4 208//4
f 190//4 189//4 208//4
f 189//4 188//4 209//4
f 188//4 187//4 210//4
f 187//4 186//4 211//4
f 186//4 185//4 212//4
f 184//4 183//4 215//4
f 183//4 182//4 216//4
f 182//4 181//4 216//4
f 181//4 180//4 217//4
f 180//4 179//4 218//4
f 179//4 178//4 219//4
f 178//4 177//4 220//4
f 176//4 175//4 223//4
f 175//4 174//4 224//4
f 174//4 173//4 224//4
f 172//4 171//4 227//4
f 171//4 170//4 228//4
