# Blender v2.79 (sub 0) OBJ File: 'TreasureChest.blend'
# www.blender.org
v 0.375000 -0.275000 -0.500000
v 0.375000 -0.275000 0.500000
v -0.375000 -0.275000 0.500000
v -0.375000 -0.275000 -0.500000
v 0.375000 0.275000 -0.500000
v 0.375000 0.275000 0.500000
v -0.375000 0.275000 0.500000
v -0.375000 0.275000 -0.500000
v 0.325000 0.275000 0.450000
v -0.325000 0.275000 0.450000
v 0.325000 0.275000 -0.450000
v -0.325000 0.275000 -0.450000
v 0.325000 -0.193839 0.450000
v -0.325000 -0.193839 0.450000
v 0.325000 -0.193839 -0.450000
v -0.325000 -0.193839 -0.450000
v 0.507491 0.000000 0.000000
v 0.375000 -0.137500 -0.250000
v 0.375000 0.137500 -0.250000
v 0.375000 0.137500 0.250000
v 0.375000 -0.137500 0.250000
vn 0.0000 -1.0000 0.0000
vn 0.0000 -0.0000 1.0000
vn -1.0000 -0.0000 -0.0000
vn 0.0000 0.0000 -1.0000
vn 0.0000 1.0000 0.0000
vn 1.0000 0.0000 0.0000
vn 0.8836 0.0000 -0.4683
vn 0.7201 0.6939 0.0000
vn 0.8836 0.0000 0.4683
vn 0.7201 -0.6939 0.0000
s off
f 2//1 4//1 1//1
f 6//2 3//2 2//2
f 3//3 8//3 4//3
f 1//4 8//4 5//4
f 7//5 9//5 10//5
f 12//5 5//5 8//5
f 11//5 6//5 5//5
f 7//5 12//5 8//5
f 10//6 16//6 12//6
f 12//2 15//2 11//2
f 9//4 14//4 10//4
f 11//3 13//3 9//3
f 14//5 15//5 16//5
f 18//7 19//7 17//7
f 19//8 20//8 17//8
f 20//9 21//9 17//9
f 21//10 18//10 17//10
f 2//6 18//6 21//6
f 2//6 20//6 6//6
f 6//6 19//6 5//6
f 5//6 18//6 1//6
f 2//1 3//1 4//1
f 6//2 7//2 3//2
f 3//3 7//3 8//3
f 1//4 4//4 8//4
f 7//5 6//5 9//5
f 12//5 11//5 5//5
f 11//5 9//5 6//5
f 7//5 10//5 12//5
f 10//6 14//6 16//6
f 12//2 16//2 15//2
f 9//4 13//4 14//4
f 11//3 15//3 13//3
f 14//5 13//5 15//5
f 2//6 1//6 18//6
f 2//6 21//6 20//6
f 6//6 20//6 19//6
f 5//6 19//6 18//6
