# Blender v2.79 (sub 0) OBJ File: 'TreasureChestLid.blend'
# www.blender.org
v 0.000000 -0.055000 0.500000
v 0.000000 0.055000 0.500000
v 0.000000 -0.055000 -0.500000
v 0.000000 0.055000 -0.500000
v 0.750000 -0.055000 0.500000
v 0.750000 0.055000 0.500000
v 0.750000 -0.055000 -0.500000
v 0.750000 0.055000 -0.500000
v 0.375000 0.156220 -0.500000
v 0.375000 0.156220 0.500000
vn -1.0000 0.0000 0.0000
vn 0.0000 0.0000 -1.0000
vn 1.0000 0.0000 0.0000
vn 0.0000 0.0000 1.0000
vn 0.0000 -1.0000 0.0000
vn -0.2606 0.9654 0.0000
vn 0.2606 0.9654 0.0000
s off
f 2//1 3//1 1//1
f 4//2 9//2 8//2
f 8//3 5//3 7//3
f 6//4 10//4 2//4
f 7//5 1//5 3//5
f 4//6 10//6 9//6
f 9//7 6//7 8//7
f 6//4 1//4 5//4
f 4//2 7//2 3//2
f 2//1 4//1 3//1
f 8//3 6//3 5//3
f 7//5 5//5 1//5
f 4//6 2//6 10//6
f 9//7 10//7 6//7
f 6//4 2//4 1//4
f 4//2 8//2 7//2
