# Blender v2.79 (sub 0) OBJ File: 'Triangle.blend'
# www.blender.org
v 0.000000 0.000000 0.000000
v 5.000000 2.000000 0.000000
v 0.000000 0.800000 -5.000000
v 6.000000 1.500000 -4.000000
v 0.000000 0.500000 4.000000
v -3.500000 0.200000 0.000000
v -5.668107 3.304239 -5.010935
v -61.472069 -50.585655 31.749947
v 4.663486 0.554593 4.032002
v -72.651215 -46.349228 12.610434
v -48.519184 -45.158073 46.494492
v 6.506131 6.163406 -10.299483
v 2.443524 6.135408 -11.128723
v 3.638232 0.336999 21.084026
v -1.184052 0.181306 20.669703
v 7.333860 0.966318 0.844143
v 7.333860 0.966318 3.720454
v 7.333860 0.966318 -3.324640
v 16.256861 0.966318 0.844143
v 16.256861 0.966318 3.720454
v 16.256861 0.966318 -3.324640
v 14.629351 6.247899 0.844143
v 14.013319 6.247899 3.720454
v 14.013319 6.247899 -3.324640
v 11.795361 0.966318 3.720454
v 7.333860 5.775544 3.720454
v 11.795361 5.775544 3.720454
vn -0.3674 0.9184 0.1469
vn -0.0906 0.9852 -0.1458
vn -0.3689 0.9223 -0.1153
vn 0.0566 0.9907 -0.1238
vn 0.0563 0.9859 0.1577
vn 0.3756 0.8518 0.3652
vn -0.4897 0.7898 0.3692
vn -0.0133 0.9416 0.3364
vn -0.4472 0.7819 0.4343
vn -0.5686 0.7963 0.2064
vn -0.1887 0.7965 0.5745
vn -0.1320 0.7731 0.6204
vn -0.0118 0.9999 0.0121
vn -0.0337 0.9993 0.0167
vn 0.2731 0.8981 0.3447
vn -0.1524 0.9883 0.0000
vn 0.3803 0.9246 -0.0205
vn 0.4050 0.9143 0.0000
vn 0.0000 1.0000 0.0000
vn -0.9120 -0.3874 0.1348
vn -0.9557 -0.2945 0.0000
vn 0.0000 0.0000 -1.0000
vn -0.9030 -0.3836 -0.1934
s off
f 1//1 2//1 3//1
f 3//2 2//2 4//2
f 2//3 1//3 5//3
f 5//4 1//4 6//4
f 1//5 3//5 6//5
f 6//6 3//6 7//6
f 6//7 8//7 5//7
f 5//8 9//8 2//8
f 8//9 6//9 10//9
f 8//10 11//10 5//10
f 4//11 12//11 3//11
f 12//12 13//12 3//12
f 9//13 5//13 14//13
f 14//14 5//14 15//14
f 9//15 16//15 2//15
f 17//16 16//16 9//16
f 4//17 2//17 18//17
f 16//18 18//18 2//18
f 18//19 16//19 19//19
f 16//19 17//19 25//19
f 19//19 16//19 20//19
f 21//19 18//19 19//19
f 21//20 22//20 24//20
f 20//21 22//21 19//21
f 25//19 20//19 16//19
f 17//22 27//22 25//22
f 21//21 19//21 22//21
f 20//23 23//23 22//23
f 17//22 26//22 27//22
