# Blender v2.79 (sub 0) OBJ File: 'Triangle.blend'
# www.blender.org
v 0.000000 0.000000 0.000000
v 5.000000 2.000000 0.000000
v 0.000000 0.800000 -5.000000
v 6.000000 1.500000 -4.000000
v 0.000000 0.500000 4.000000
v -3.500000 0.200000 0.000000
v -3.500000 2.700000 -3.000000
v -4.000000 -1.800000 3.000000
v 4.000000 1.900000 4.000000
vn -0.3674 0.9184 0.1469
vn -0.0906 0.9852 -0.1458
vn -0.3689 0.9223 -0.1153
vn 0.0566 0.9907 -0.1238
vn 0.0563 0.9859 0.1577
vn 0.6164 0.6049 0.5041
vn -0.5296 0.7439 0.4076
vn -0.3298 0.9422 -0.0589
s off
f 1//1 2//1 3//1
f 3//2 2//2 4//2
f 2//3 1//3 5//3
f 5//4 1//4 6//4
f 1//5 3//5 6//5
f 6//6 3//6 7//6
f 6//7 8//7 5//7
f 5//8 9//8 2//8
