# Blender v2.80 (sub 75) OBJ File: 'Windmill.blend'
# www.blender.org
v 0.000000 1.000000 -10.000000
v -0.980171 1.000000 -9.951847
v -1.950903 1.000000 -9.807853
v -2.902847 1.000000 -9.569404
v -3.826835 1.000000 -9.238795
v -4.713967 1.000000 -8.819212
v -5.555702 1.000000 -8.314696
v -6.343933 1.000000 -7.730105
v -7.071068 1.000000 -7.071068
v -7.730104 1.000000 -6.343933
v -8.314696 1.000000 -5.555703
v -8.819212 1.000000 -4.713968
v -9.238795 1.000000 -3.826834
v -9.569404 1.000000 -2.902846
v 4.713976 2.200000 8.819208
v 2.258445 1.800000 2.751916
v 6.343941 1.800000 7.730098
v 8.819216 1.000000 4.713963
v 9.238797 1.000000 3.826831
v 9.569404 1.000000 2.902845
v 9.807853 1.000000 1.950904
v 9.951847 1.000000 0.980174
v 10.000000 1.000000 0.000005
v 9.951848 1.000000 -0.980165
v 9.807855 1.000000 -1.950895
v 9.569407 1.000000 -2.902837
v 9.238800 1.000000 -3.826823
v 8.819220 1.000000 -4.713954
v 8.314706 1.000000 -5.555689
v 7.730116 1.000000 -6.343918
v 7.071083 1.000000 -7.071054
v 6.343950 1.000000 -7.730090
v 5.555723 1.000000 -8.314682
v 4.713991 1.000000 -8.819201
v 3.826860 1.000000 -9.238785
v 2.902876 1.000000 -9.569395
v 1.950935 1.000000 -9.807846
v 0.980206 1.000000 -9.951843
v -0.348940 1.000000 -3.542860
v -0.000006 1.000000 -3.560002
v -0.694523 1.000000 -3.491597
v -1.033414 1.000000 -3.406710
v -1.362353 1.000000 -3.289013
v -1.678173 1.000000 -3.139641
v -1.977833 1.000000 -2.960032
v -2.258443 1.000000 -2.751918
v -2.517302 1.000000 -2.517303
v -2.751919 1.000000 -2.258441
v -2.960033 1.000000 -1.977832
v -3.139641 1.000000 -1.678175
v -3.289013 1.000000 -1.362353
v -3.406710 1.000000 -1.033413
v -3.491598 1.000000 -0.694522
v -3.542860 1.000000 -0.348941
v -3.560002 1.000000 0.000002
v -3.542860 1.000000 0.348943
v -3.491598 1.000000 0.694522
v -3.406709 1.000000 1.033414
v -3.289012 1.000000 1.362355
v -3.139640 1.000000 1.678175
v -2.960032 1.000000 1.977833
v -2.751917 1.000000 2.258444
v -2.517301 1.000000 2.517302
v -2.258440 1.000000 2.751920
v -1.977830 1.000000 2.960035
v -1.678172 1.000000 3.139642
v -1.362351 1.000000 3.289015
v -1.033412 1.000000 3.406711
v -0.694520 1.000000 3.491598
v -0.348939 1.000000 3.542860
v 0.000004 1.000000 3.560002
v 0.348945 1.000000 3.542860
v 0.694524 1.000000 3.491598
v 1.033416 1.000000 3.406709
v 1.362358 1.000000 3.289012
v 1.678177 1.000000 3.139639
v 1.977834 1.000000 2.960032
v 2.258445 1.000000 2.751916
v 2.517305 1.000000 2.517298
v 2.751921 1.000000 2.258440
v 2.960036 1.000000 1.977829
v 3.139642 1.000000 1.678171
v 3.289012 1.000000 1.362354
v 3.406709 1.000000 1.033415
v 3.491597 1.000000 0.694521
v 3.542859 1.000000 0.348942
v 3.560002 1.000000 0.000003
v 3.542860 1.000000 -0.348938
v 3.491599 1.000000 -0.694520
v 3.406710 1.000000 -1.033412
v 3.289015 1.000000 -1.362350
v 3.139644 1.000000 -1.678169
v 2.960037 1.000000 -1.977826
v 2.751923 1.000000 -2.258436
v 2.517307 1.000000 -2.517296
v 2.258449 1.000000 -2.751913
v 1.977837 1.000000 -2.960029
v 1.678181 1.000000 -3.139637
v 1.362364 1.000000 -3.289009
v 1.033424 1.000000 -3.406706
v 0.694534 1.000000 -3.491595
v 0.348960 1.000000 -3.542858
v -9.807853 8.004674 -1.950902
v -9.569404 8.004674 -2.902846
v -3.406710 3.000000 -1.033413
v -3.491598 3.000000 -0.694522
v -3.542860 3.000000 -0.348941
v -3.560002 3.000000 0.000002
v -3.542860 3.000000 0.348943
v -3.491598 3.000000 0.694522
v -3.406709 3.000000 1.033414
v -3.289012 3.000000 1.362355
v -3.139640 3.000000 1.678175
v -2.960032 3.000000 1.977833
v -2.751917 3.000000 2.258444
v -2.517301 3.000000 2.517302
v -2.258440 3.000000 2.751920
v -1.977830 3.000000 2.960035
v -1.678172 3.000000 3.139642
v -1.362351 3.000000 3.289015
v -1.033412 3.000000 3.406711
v -0.694520 3.000000 3.491598
v -0.348939 3.000000 3.542860
v 0.000004 3.000000 3.560002
v 0.348945 3.000000 3.542860
v 0.694524 3.000000 3.491598
v 1.033416 3.000000 3.406709
v -10.000000 8.004674 0.000002
v -9.951847 8.004674 -0.980170
v -9.569404 3.000000 -2.902846
v -9.807853 3.000000 -1.950902
v -9.951847 3.000000 -0.980170
v -10.000000 3.000000 0.000002
v -9.951847 3.000000 0.980173
v -9.807853 3.000000 1.950906
v -9.569403 3.000000 2.902850
v -9.238794 3.000000 3.826837
v -8.819211 3.000000 4.713970
v -8.314694 3.000000 5.555706
v -7.730102 3.000000 6.343936
v -7.071065 3.000000 7.071071
v -6.343928 3.000000 7.730108
v -5.555697 3.000000 8.314699
v -4.713962 3.000000 8.819216
v -3.826828 3.000000 9.238798
v -2.902840 3.000000 9.569406
v -1.950896 3.000000 9.807855
v -0.980164 3.000000 9.951848
v 0.000008 3.000000 10.000000
v 0.980180 3.000000 9.951847
v 1.950912 3.000000 9.807852
v 2.902856 3.000000 9.569401
v 4.713976 2.600000 8.819208
v 1.678177 2.600000 3.139639
v 6.343941 2.200000 7.730098
v 2.258445 2.200000 2.751916
v 7.730110 1.800000 6.343925
v 2.751921 1.800000 2.258440
v 8.819216 1.400000 4.713963
v 3.139642 1.400000 1.678171
v 7.730110 1.400000 6.343925
v 2.751921 1.400000 2.258440
v 8.314700 1.400000 5.555696
v 2.960036 1.400000 1.977829
v 7.071076 1.800000 7.071060
v 2.517305 1.800000 2.517298
v 5.555711 2.200000 8.314691
v 1.977834 2.200000 2.960032
v 3.826843 2.600000 9.238791
v 1.362358 2.600000 3.289012
v 1.033416 2.600000 3.406709
v 2.902856 2.600000 9.569401
v 1.678177 2.200000 3.139639
v -9.951847 8.004674 0.980173
v -9.807853 8.004674 1.950906
v -9.569403 8.004674 2.902850
v -9.238794 8.004674 3.826837
v -8.819211 8.004674 4.713970
v -8.314694 8.004674 5.555706
v -7.730102 8.004674 6.343936
v -7.071065 8.004674 7.071071
v -6.343928 8.004674 7.730108
v -5.555697 8.004674 8.314699
v -4.713962 8.004674 8.819216
v -3.826828 8.004674 9.238798
v -2.902840 8.004674 9.569406
v -1.950896 8.004674 9.807855
v -0.980164 8.004674 9.951848
v 0.000008 8.004674 10.000000
v 0.980180 8.004674 9.951847
v 1.950912 8.004674 9.807852
v 2.902856 8.004674 9.569401
v -9.951847 7.253973 0.980173
v -9.807853 7.253973 1.950906
v -9.951847 7.253973 -0.980170
v -10.000000 7.253973 0.000002
v -0.980164 5.502337 9.951848
v -6.343928 5.502337 7.730108
v -0.980164 4.251169 9.951848
v -6.343928 4.251169 7.730108
v -5.555697 4.251169 8.314699
v -4.713962 4.251169 8.819216
v -3.826828 4.251169 9.238798
v -2.902840 4.251169 9.569406
v -1.950896 4.251169 9.807855
v -6.343928 6.753506 7.730108
v -5.555697 6.753506 8.314699
v -4.713962 6.753506 8.819216
v -3.826828 6.753506 9.238798
v -2.902840 6.753506 9.569406
v -1.950896 6.753506 9.807855
v -0.980164 6.753506 9.951848
v -7.071068 8.000000 -7.071068
v -7.730104 8.000000 -6.343933
v -8.314696 8.000000 -5.555703
v -8.819212 8.000000 -4.713968
v -9.238795 8.000000 -3.826834
v -9.238795 3.000000 -3.826834
v -8.819212 5.250000 -4.713968
v -8.314696 5.250000 -5.555703
v -7.730104 5.250000 -6.343933
v -9.238795 5.250000 -3.826834
vn 0.0000 1.0000 0.0000
vn 0.0491 0.0000 -0.9988
vn 0.8577 0.0000 -0.5141
vn -0.2430 0.0000 -0.9700
vn 0.9040 0.0000 -0.4276
vn -0.1467 0.0000 -0.9892
vn 0.9415 0.0000 -0.3369
vn -0.0491 0.0000 -0.9988
vn 0.9700 0.0000 -0.2430
vn 0.9892 0.0000 -0.1467
vn 0.1467 0.0000 -0.9892
vn 0.9988 0.0000 -0.0491
vn 0.2430 0.0000 -0.9700
vn 0.0000 0.0000 1.0000
vn 0.8032 0.0000 -0.5957
vn 0.2903 0.0000 -0.9569
vn 0.7410 0.0000 -0.6716
vn 0.6716 0.0000 -0.7410
vn 0.5957 0.0000 -0.8032
vn 0.5141 0.0000 -0.8577
vn 0.9700 0.0000 0.2430
vn 0.4276 0.0000 -0.9040
vn 0.9892 0.0000 0.1467
vn 0.3369 0.0000 -0.9415
vn 0.9988 0.0000 0.0491
vn 0.8819 0.0000 -0.4714
vn 0.7730 0.0000 -0.6344
vn 0.6344 0.0000 -0.7730
vn 0.4714 0.0000 -0.8819
vn -0.8032 0.0000 -0.5957
vn 0.9569 0.0000 -0.2903
vn 0.8577 0.0000 0.5141
vn 0.7410 0.0000 0.6716
vn 0.9040 0.0000 0.4276
vn 0.8032 0.0000 0.5957
vn 0.9415 0.0000 0.3369
vn -0.8577 0.0000 -0.5141
vn -0.7410 0.0000 -0.6716
vn -0.6716 0.0000 -0.7409
vn -0.5141 0.0000 -0.8577
vn -0.3369 0.0000 -0.9415
vn -0.4276 0.0000 -0.9040
vn -0.5957 0.0000 -0.8032
vn 0.7409 0.0000 -0.6716
s off
f 55//1 71//1 87//1
f 40//1 2//1 39//1
f 39//1 3//1 41//1
f 42//1 3//1 4//1
f 42//1 5//1 43//1
f 44//1 5//1 6//1
f 45//1 6//1 7//1
f 46//1 7//1 8//1
f 47//1 8//1 9//1
f 47//1 10//1 48//1
f 48//1 11//1 49//1
f 49//1 12//1 50//1
f 149//2 199//2 197//2
f 60//3 114//3 61//3
f 73//4 127//4 74//4
f 59//5 113//5 60//5
f 72//6 126//6 73//6
f 58//7 112//7 59//7
f 71//8 125//8 72//8
f 57//9 111//9 58//9
f 70//2 124//2 71//2
f 56//10 110//10 57//10
f 69//11 123//11 70//11
f 55//12 109//12 56//12
f 68//13 122//13 69//13
f 127//14 171//14 74//14
f 157//1 166//1 165//1
f 165//1 16//1 17//1
f 82//1 19//1 83//1
f 83//1 20//1 84//1
f 84//1 21//1 85//1
f 85//1 22//1 86//1
f 87//1 22//1 23//1
f 87//1 24//1 88//1
f 89//1 24//1 25//1
f 89//1 26//1 90//1
f 90//1 27//1 91//1
f 91//1 28//1 92//1
f 93//1 28//1 29//1
f 94//1 29//1 30//1
f 94//1 31//1 95//1
f 95//1 32//1 96//1
f 96//1 33//1 97//1
f 97//1 34//1 98//1
f 99//1 34//1 35//1
f 99//1 36//1 100//1
f 100//1 37//1 101//1
f 101//1 38//1 102//1
f 40//1 38//1 1//1
f 105//1 131//1 106//1
f 106//1 132//1 107//1
f 107//1 133//1 108//1
f 108//1 134//1 109//1
f 110//1 134//1 135//1
f 111//1 135//1 136//1
f 112//1 136//1 137//1
f 112//1 138//1 113//1
f 114//1 138//1 139//1
f 115//1 139//1 140//1
f 115//1 141//1 116//1
f 116//1 142//1 117//1
f 117//1 143//1 118//1
f 118//1 144//1 119//1
f 120//1 144//1 145//1
f 120//1 146//1 121//1
f 121//1 147//1 122//1
f 123//1 147//1 148//1
f 123//1 149//1 124//1
f 125//1 149//1 150//1
f 126//1 150//1 151//1
f 126//1 152//1 127//1
f 61//15 115//15 62//15
f 52//16 130//16 105//16
f 62//17 116//17 63//17
f 63//18 117//18 64//18
f 50//1 13//1 51//1
f 64//19 118//19 65//19
f 51//1 14//1 52//1
f 65//20 119//20 66//20
f 52//21 106//21 53//21
f 66//22 120//22 67//22
f 53//23 107//23 54//23
f 67//24 121//24 68//24
f 54//25 108//25 55//25
f 173//26 153//26 15//26
f 16//27 155//27 17//27
f 162//28 157//28 161//28
f 82//29 159//29 18//29
f 159//1 164//1 163//1
f 163//1 162//1 161//1
f 80//30 164//30 81//30
f 127//31 172//31 171//31
f 170//1 172//1 169//1
f 153//1 170//1 169//1
f 168//1 155//1 156//1
f 15//1 168//1 173//1
f 198//18 200//18 141//18
f 174//10 194//10 193//10
f 149//8 190//8 150//8
f 182//19 207//19 206//19
f 194//9 176//9 136//9
f 150//6 191//6 151//6
f 183//20 208//20 207//20
f 136//7 177//7 137//7
f 151//4 192//4 152//4
f 184//22 209//22 208//22
f 137//5 178//5 138//5
f 104//21 131//21 130//21
f 185//24 210//24 209//24
f 138//3 179//3 139//3
f 103//23 129//23 195//23
f 186//13 211//13 210//13
f 139//15 180//15 140//15
f 129//25 196//25 195//25
f 187//11 212//11 211//11
f 140//17 181//17 141//17
f 128//12 193//12 196//12
f 200//19 143//19 142//19
f 201//20 144//20 143//20
f 202//22 145//22 144//22
f 205//11 148//11 147//11
f 204//13 147//13 146//13
f 203//24 146//24 145//24
f 220//32 216//32 219//32
f 213//33 214//33 221//33
f 219//34 217//34 222//34
f 221//35 215//35 220//35
f 218//36 14//36 13//36
f 222//36 217//36 104//36
f 164//37 82//37 81//37
f 79//38 166//38 158//38
f 79//38 162//38 80//38
f 162//38 79//38 158//38
f 78//39 166//39 79//39
f 173//40 77//40 76//40
f 171//41 75//41 74//41
f 170//42 154//42 173//42
f 170//42 173//42 75//42
f 75//42 173//42 76//42
f 77//43 16//43 78//43
f 168//43 16//43 77//43
f 16//43 168//43 156//43
f 40//1 39//1 43//1
f 39//1 41//1 43//1
f 41//1 42//1 43//1
f 43//1 44//1 45//1
f 45//1 46//1 47//1
f 47//1 48//1 51//1
f 48//1 49//1 51//1
f 49//1 50//1 51//1
f 51//1 52//1 53//1
f 53//1 54//1 51//1
f 54//1 55//1 51//1
f 55//1 56//1 57//1
f 57//1 58//1 55//1
f 58//1 59//1 55//1
f 59//1 60//1 61//1
f 61//1 62//1 63//1
f 63//1 64//1 65//1
f 65//1 66//1 63//1
f 66//1 67//1 63//1
f 67//1 68//1 69//1
f 69//1 70//1 71//1
f 71//1 72//1 73//1
f 73//1 74//1 71//1
f 74//1 75//1 71//1
f 75//1 76//1 79//1
f 76//1 77//1 79//1
f 77//1 78//1 79//1
f 79//1 80//1 81//1
f 81//1 82//1 79//1
f 82//1 83//1 79//1
f 83//1 84//1 85//1
f 85//1 86//1 83//1
f 86//1 87//1 83//1
f 87//1 88//1 91//1
f 88//1 89//1 91//1
f 89//1 90//1 91//1
f 91//1 92//1 95//1
f 92//1 93//1 95//1
f 93//1 94//1 95//1
f 95//1 96//1 97//1
f 97//1 98//1 99//1
f 99//1 100//1 40//1
f 100//1 101//1 40//1
f 101//1 102//1 40//1
f 43//1 45//1 47//1
f 59//1 61//1 63//1
f 67//1 69//1 63//1
f 69//1 71//1 63//1
f 95//1 97//1 40//1
f 97//1 99//1 40//1
f 40//1 43//1 55//1
f 43//1 47//1 55//1
f 47//1 51//1 55//1
f 55//1 59//1 71//1
f 59//1 63//1 71//1
f 71//1 75//1 79//1
f 79//1 83//1 71//1
f 83//1 87//1 71//1
f 87//1 91//1 95//1
f 87//1 95//1 40//1
f 40//1 55//1 87//1
f 40//1 1//1 2//1
f 39//1 2//1 3//1
f 42//1 41//1 3//1
f 42//1 4//1 5//1
f 44//1 43//1 5//1
f 45//1 44//1 6//1
f 46//1 45//1 7//1
f 47//1 46//1 8//1
f 47//1 9//1 10//1
f 48//1 10//1 11//1
f 49//1 11//1 12//1
f 149//2 148//2 199//2
f 197//2 212//2 189//2
f 212//2 188//2 189//2
f 197//2 189//2 149//2
f 60//3 113//3 114//3
f 73//4 126//4 127//4
f 59//5 112//5 113//5
f 72//6 125//6 126//6
f 58//7 111//7 112//7
f 71//8 124//8 125//8
f 57//9 110//9 111//9
f 70//2 123//2 124//2
f 56//10 109//10 110//10
f 69//11 122//11 123//11
f 55//12 108//12 109//12
f 68//13 121//13 122//13
f 157//1 158//1 166//1
f 165//1 166//1 16//1
f 82//1 18//1 19//1
f 83//1 19//1 20//1
f 84//1 20//1 21//1
f 85//1 21//1 22//1
f 87//1 86//1 22//1
f 87//1 23//1 24//1
f 89//1 88//1 24//1
f 89//1 25//1 26//1
f 90//1 26//1 27//1
f 91//1 27//1 28//1
f 93//1 92//1 28//1
f 94//1 93//1 29//1
f 94//1 30//1 31//1
f 95//1 31//1 32//1
f 96//1 32//1 33//1
f 97//1 33//1 34//1
f 99//1 98//1 34//1
f 99//1 35//1 36//1
f 100//1 36//1 37//1
f 101//1 37//1 38//1
f 40//1 102//1 38//1
f 105//1 130//1 131//1
f 106//1 131//1 132//1
f 107//1 132//1 133//1
f 108//1 133//1 134//1
f 110//1 109//1 134//1
f 111//1 110//1 135//1
f 112//1 111//1 136//1
f 112//1 137//1 138//1
f 114//1 113//1 138//1
f 115//1 114//1 139//1
f 115//1 140//1 141//1
f 116//1 141//1 142//1
f 117//1 142//1 143//1
f 118//1 143//1 144//1
f 120//1 119//1 144//1
f 120//1 145//1 146//1
f 121//1 146//1 147//1
f 123//1 122//1 147//1
f 123//1 148//1 149//1
f 125//1 124//1 149//1
f 126//1 125//1 150//1
f 126//1 151//1 152//1
f 61//15 114//15 115//15
f 52//16 14//16 130//16
f 62//44 115//44 116//44
f 63//18 116//18 117//18
f 50//1 12//1 13//1
f 64//19 117//19 118//19
f 51//1 13//1 14//1
f 65//20 118//20 119//20
f 52//21 105//21 106//21
f 66//22 119//22 120//22
f 53//23 106//23 107//23
f 67//24 120//24 121//24
f 54//25 107//25 108//25
f 173//26 154//26 153//26
f 16//27 156//27 155//27
f 162//28 158//28 157//28
f 82//29 160//29 159//29
f 159//1 160//1 164//1
f 163//1 164//1 162//1
f 80//30 162//30 164//30
f 127//31 152//31 172//31
f 170//1 171//1 172//1
f 153//1 154//1 170//1
f 168//1 167//1 155//1
f 15//1 167//1 168//1
f 200//18 142//18 141//18
f 141//18 181//18 198//18
f 181//18 182//18 206//18
f 206//18 198//18 181//18
f 174//10 175//10 194//10
f 149//8 189//8 190//8
f 182//19 183//19 207//19
f 136//9 135//9 194//9
f 194//9 175//9 176//9
f 150//6 190//6 191//6
f 183//20 184//20 208//20
f 136//7 176//7 177//7
f 151//4 191//4 192//4
f 184//22 185//22 209//22
f 137//5 177//5 178//5
f 104//21 103//21 131//21
f 185//24 186//24 210//24
f 138//3 178//3 179//3
f 132//23 131//23 195//23
f 131//23 103//23 195//23
f 186//13 187//13 211//13
f 139//15 179//15 180//15
f 129//25 128//25 196//25
f 187//11 188//11 212//11
f 140//17 180//17 181//17
f 128//12 174//12 193//12
f 200//19 201//19 143//19
f 201//20 202//20 144//20
f 202//22 203//22 145//22
f 205//11 199//11 148//11
f 204//13 205//13 147//13
f 203//24 204//24 146//24
f 220//32 215//32 216//32
f 221//33 10//33 9//33
f 9//33 213//33 221//33
f 219//34 216//34 217//34
f 221//35 214//35 215//35
f 218//36 130//36 14//36
f 104//36 130//36 222//36
f 130//36 218//36 222//36
f 164//37 160//37 82//37
f 78//39 16//39 166//39
f 173//40 168//40 77//40
f 171//41 170//41 75//41
