# Blender v2.80 (sub 75) OBJ File: 'Windmill.blend'
# www.blender.org
v 4.000000 4.000000 -4.000000
v -4.000000 4.000000 -4.000000
v 4.000000 4.000000 4.000000
v -4.000000 4.000000 4.000000
v -28.197407 81.552544 26.905006
v -8.197408 81.552544 46.905006
v -9.963734 81.552544 9.963483
v 10.036266 81.552544 29.963484
v -28.197407 79.038506 26.905006
v -8.197408 79.038506 46.905006
v -9.963734 79.038506 9.963483
v 10.036266 79.038506 29.963484
v 4.000000 0.000000 4.000000
v -4.000000 0.000000 4.000000
v -4.050256 0.000000 14.449747
v -9.000001 2.000000 4.000000
v -14.000002 2.000000 4.000000
v -9.000001 2.000000 -2.000000
v -14.000002 2.000000 -2.000000
v -9.000001 2.400000 4.000000
v -9.000001 2.400000 -2.000000
v -8.000001 2.400000 4.000000
v -8.000001 2.400000 -2.000000
v -8.000001 2.800000 4.000000
v -8.000001 2.800000 -2.000000
v -7.000000 2.800000 4.000000
v -7.000000 2.800000 -2.000000
v -7.000000 3.200000 4.000000
v -7.000000 3.200000 -2.000000
v -6.000000 3.200000 4.000000
v -6.000000 3.200000 -2.000000
v -6.000000 3.600000 4.000000
v -6.000000 3.600000 -2.000000
v -5.000000 3.600000 4.000000
v -5.000000 3.600000 -2.000000
v -5.000000 4.000000 4.000000
v -5.000000 4.000000 -2.000000
v -4.000000 4.000000 4.000000
v -4.000000 4.000000 -2.000000
v -9.000001 2.000000 4.500000
v -14.000002 2.000000 4.500000
v -14.000002 2.000000 9.500000
v -9.000001 1.600000 4.500000
v -14.000002 1.600000 9.500000
v -9.000001 1.600000 4.500000
v -14.000002 1.600000 9.500000
v -8.292894 1.600000 5.207107
v -13.292895 1.600000 10.207107
v -8.292894 1.200000 5.207107
v -13.292895 1.200000 10.207107
v -7.585788 1.200000 5.914213
v -12.585789 1.200000 10.914213
v -7.585788 0.800000 5.914213
v -12.585789 0.800000 10.914213
v -6.878681 0.800000 6.621320
v -11.878682 0.800000 11.621320
v -6.878681 0.400000 6.621320
v -11.878682 0.400000 11.621320
v -6.171575 0.400000 7.328426
v -11.171576 0.400000 12.328426
v -6.171575 0.000000 7.328426
v -11.171576 0.000000 12.328426
v -4.050255 0.000000 9.449747
v -9.050256 0.000000 14.449747
v 3.949744 0.000000 14.449747
vn 0.0000 1.0000 0.0000
vn 0.0000 -1.0000 -0.0000
vn -0.7071 0.0000 0.7071
vn -0.6807 0.0000 -0.7326
vn 0.7071 0.0000 -0.7071
vn 0.6807 0.0000 0.7326
vn 0.0000 0.0000 1.0000
vn -1.0000 0.0000 0.0000
vn 0.7071 0.0000 0.7071
s off
f 3//1 2//1 4//1
f 10//2 11//2 12//2
f 6//1 7//1 5//1
f 5//3 10//3 6//3
f 7//4 9//4 5//4
f 8//5 11//5 7//5
f 6//6 12//6 8//6
f 4//7 13//7 3//7
f 15//1 63//1 64//1
f 13//1 14//1 63//1
f 16//1 19//1 17//1
f 16//8 21//8 18//8
f 20//1 23//1 21//1
f 22//8 25//8 23//8
f 24//1 27//1 25//1
f 26//8 29//8 27//8
f 28//1 31//1 29//1
f 30//8 33//8 31//8
f 32//1 35//1 33//1
f 34//8 37//8 35//8
f 36//1 39//1 37//1
f 17//1 40//1 16//1
f 41//1 42//1 40//1
f 42//9 43//9 40//9
f 43//7 46//7 45//7
f 46//1 47//1 45//1
f 48//9 49//9 47//9
f 50//1 51//1 49//1
f 52//9 53//9 51//9
f 54//1 55//1 53//1
f 56//9 57//9 55//9
f 58//1 59//1 57//1
f 60//9 61//9 59//9
f 62//1 63//1 61//1
f 63//1 15//1 65//1
f 63//1 65//1 13//1
f 63//1 14//1 61//1
f 3//1 1//1 2//1
f 10//2 9//2 11//2
f 6//1 8//1 7//1
f 5//3 9//3 10//3
f 7//4 11//4 9//4
f 8//5 12//5 11//5
f 6//6 10//6 12//6
f 4//7 14//7 13//7
f 16//1 18//1 19//1
f 16//8 20//8 21//8
f 20//1 22//1 23//1
f 22//8 24//8 25//8
f 24//1 26//1 27//1
f 26//8 28//8 29//8
f 28//1 30//1 31//1
f 30//8 32//8 33//8
f 32//1 34//1 35//1
f 34//8 36//8 37//8
f 36//1 38//1 39//1
f 17//1 41//1 40//1
f 42//9 44//9 43//9
f 43//7 44//7 46//7
f 46//1 48//1 47//1
f 48//9 50//9 49//9
f 50//1 52//1 51//1
f 52//9 54//9 53//9
f 54//1 56//1 55//1
f 56//9 58//9 57//9
f 58//1 60//1 59//1
f 60//9 62//9 61//9
f 62//1 64//1 63//1
