# Blender v2.80 (sub 75) OBJ File: 'Windmill.blend'
# www.blender.org
v 6.000000 4.000000 -4.000000
v -4.000000 4.000000 -4.000000
v 6.000000 4.000000 4.000000
v -4.000000 4.000000 4.000000
v 2.500190 -1.200000 8.992299
v 6.000000 -1.200000 4.000000
v -4.000000 -1.200000 4.000000
v -9.000001 2.000000 4.000000
v -14.000002 2.000000 4.000000
v -9.000001 2.000000 -2.000000
v -14.000002 2.000000 -2.000000
v -9.000001 2.400000 4.000000
v -9.000001 2.400000 -2.000000
v -8.000001 2.400000 4.000000
v -8.000001 2.400000 -2.000000
v -8.000001 2.800000 4.000000
v -8.000001 2.800000 -2.000000
v -7.000000 2.800000 4.000000
v -7.000000 2.800000 -2.000000
v -7.000000 3.200000 4.000000
v -7.000000 3.200000 -2.000000
v -6.000000 3.200000 4.000000
v -6.000000 3.200000 -2.000000
v -6.000000 3.600000 4.000000
v -6.000000 3.600000 -2.000000
v -5.000000 3.600000 4.000000
v -5.000000 3.600000 -2.000000
v -5.000000 4.000000 4.000000
v -5.000000 4.000000 -2.000000
v -4.000000 4.000000 4.000000
v -4.000000 4.000000 -2.000000
v -9.000001 2.000000 4.500000
v -14.000002 2.000000 4.500000
v -14.000002 2.000000 9.500000
v -9.000001 1.600000 4.500000
v -14.000002 1.600000 9.500000
v -9.000001 1.600000 4.500000
v -14.000002 1.600000 9.500000
v -8.292894 1.600000 5.207107
v -13.292895 1.600000 10.207107
v -8.292894 1.200000 5.207107
v -13.292895 1.200000 10.207107
v -7.585788 1.200000 5.914213
v -12.585789 1.200000 10.914213
v -7.585788 0.800000 5.914213
v -12.585789 0.800000 10.914213
v -6.878681 0.800000 6.621320
v -11.878682 0.800000 11.621320
v -6.878681 0.400000 6.621320
v -11.878682 0.400000 11.621320
v -6.171575 0.400000 7.328426
v -11.171576 0.400000 12.328426
v -6.171575 0.000000 7.328426
v -11.171576 0.000000 12.328426
v -6.878681 -1.200000 6.621320
v -7.585788 -1.200000 5.914213
v -8.292894 -1.200000 5.207107
v -9.000001 -1.200000 4.500000
v -9.000001 -1.200000 4.000000
v -8.000001 -1.200000 4.000000
v -7.000000 -1.200000 4.000000
v -6.000000 -1.200000 4.000000
v -5.000000 -1.200000 4.000000
v 8.466372 -1.200000 8.992300
v -1.627673 -1.200000 29.333607
v -7.627673 -1.200000 29.333607
v 2.500190 -1.200000 16.949747
v 8.449744 -1.200000 16.949747
v 8.466372 4.000000 8.992300
v 2.500190 4.000000 8.992299
v 2.500190 4.000000 16.949747
v 8.449744 4.000000 16.949747
v -1.627673 -1.200000 21.333607
v -7.627673 -1.200000 21.333607
v -7.627673 4.000000 29.333607
v -1.627673 4.000000 29.333607
v -7.627673 4.000000 21.333607
v -1.627673 4.000000 21.333607
v -5.464468 0.000000 8.035533
v -10.464469 0.000000 13.035533
v -5.464468 -0.400000 8.035533
v -10.464469 -0.400000 13.035533
v -4.757361 -0.400000 8.742640
v -9.757362 -0.400000 13.742640
v -4.757361 -0.800000 8.742640
v -9.757362 -0.800000 13.742640
v -4.050255 -0.800000 9.449746
v -9.050256 -0.800000 14.449746
v -4.050255 -1.300000 9.449746
v -9.050256 -1.300000 14.449746
v -2.636041 -1.300000 10.863960
v -7.636043 -1.300000 15.863960
v -4.757361 -1.200000 8.742640
v -5.464468 -1.200000 8.035533
v -6.171575 -1.200000 7.328426
v 9.574767 -1.200000 18.176153
v 4.372327 -1.200000 35.333607
v 15.574767 -1.200000 24.176153
v -14.127673 -1.200000 29.333607
v -14.107501 -1.200000 21.333607
v -14.136043 -1.300000 15.863960
v -14.127673 4.000000 29.333607
v -14.107501 4.000000 21.333607
v -14.136043 3.900000 15.863960
v -21.127674 4.000000 29.333607
v -21.107502 4.000000 21.333607
v -21.136044 3.900000 15.863960
v -9.757362 -1.200000 13.742640
v -10.464469 -1.200000 13.035533
v -11.171576 -1.200000 12.328426
v -11.878682 -1.200000 11.621320
v -12.585789 -1.200000 10.914213
v -13.292895 -1.200000 10.207107
v -14.000002 -1.200000 9.500000
v -14.000002 12.000000 4.000000
v -14.000002 12.000000 -2.000000
v -14.000002 12.000000 4.500000
v -14.000002 12.000000 9.500000
v -14.136043 11.900001 15.863960
v -21.136044 11.900001 15.863960
vn 0.0000 1.0000 0.0000
vn 0.0000 0.0000 1.0000
vn -1.0000 0.0000 0.0000
vn 0.7071 0.0000 0.7071
vn 0.7071 0.0000 -0.7071
vn 1.0000 0.0000 0.0000
vn 0.0000 0.0000 -1.0000
vn -0.0195 0.9998 0.0000
vn 0.1210 0.9925 0.0193
vn -0.0182 0.9997 0.0182
vn 0.0000 0.9999 0.0146
vn -0.0261 0.9995 -0.0183
vn -0.8966 0.0000 0.4429
vn -0.0092 0.9999 -0.0087
vn -0.0087 0.9999 -0.0087
vn 0.0000 0.9998 -0.0183
vn 1.0000 0.0000 0.0025
vn 1.0000 0.0000 -0.0052
vn -0.7071 0.0000 0.7071
vn -0.0154 0.9998 0.0154
vn 0.0306 0.9935 0.1099
vn 0.9998 0.0000 0.0214
s off
f 3//1 2//1 4//1
f 70//1 72//1 69//1
f 4//2 6//2 3//2
f 8//1 11//1 9//1
f 8//3 13//3 10//3
f 12//1 15//1 13//1
f 14//3 17//3 15//3
f 16//1 19//1 17//1
f 18//3 21//3 19//3
f 20//1 23//1 21//1
f 22//3 25//3 23//3
f 24//1 27//1 25//1
f 26//3 29//3 27//3
f 28//1 31//1 29//1
f 9//1 32//1 8//1
f 33//1 34//1 32//1
f 34//4 35//4 32//4
f 35//2 38//2 37//2
f 38//1 39//1 37//1
f 40//4 41//4 39//4
f 42//1 43//1 41//1
f 44//4 45//4 43//4
f 46//1 47//1 45//1
f 48//4 49//4 47//4
f 50//1 51//1 49//1
f 52//4 53//4 51//4
f 47//5 49//5 45//5
f 55//5 56//5 49//5
f 56//5 45//5 49//5
f 43//5 45//5 41//5
f 56//5 57//5 45//5
f 57//5 41//5 45//5
f 57//5 58//5 41//5
f 39//5 41//5 37//5
f 58//5 37//5 41//5
f 63//2 7//2 26//2
f 26//2 7//2 30//2
f 26//2 30//2 28//2
f 20//2 18//2 22//2
f 16//2 14//2 18//2
f 12//2 8//2 14//2
f 22//2 18//2 62//2
f 26//2 22//2 63//2
f 22//2 62//2 63//2
f 18//2 61//2 62//2
f 60//2 61//2 14//2
f 18//2 14//2 61//2
f 59//2 60//2 8//2
f 14//2 8//2 60//2
f 8//6 32//6 37//6
f 59//6 8//6 37//6
f 37//6 58//6 59//6
f 24//2 22//2 26//2
f 74//7 78//7 73//7
f 68//2 71//2 67//2
f 5//7 69//7 64//7
f 67//3 70//3 5//3
f 77//1 76//1 78//1
f 73//6 76//6 65//6
f 65//2 75//2 66//2
f 67//8 5//8 91//8
f 54//1 79//1 53//1
f 80//4 81//4 79//4
f 82//1 83//1 81//1
f 84//4 85//4 83//4
f 86//1 87//1 85//1
f 88//4 89//4 87//4
f 90//1 91//1 89//1
f 51//5 53//5 49//5
f 79//5 81//5 53//5
f 83//5 85//5 81//5
f 87//5 89//5 85//5
f 93//5 85//5 89//5
f 94//5 81//5 85//5
f 85//5 93//5 94//5
f 94//5 95//5 81//5
f 95//5 53//5 81//5
f 53//5 95//5 55//5
f 55//5 49//5 53//5
f 59//1 58//1 60//1
f 58//1 57//1 60//1
f 60//1 57//1 61//1
f 57//1 56//1 61//1
f 61//1 56//1 62//1
f 56//1 55//1 62//1
f 62//1 55//1 63//1
f 55//1 95//1 63//1
f 63//1 95//1 7//1
f 95//1 94//1 7//1
f 94//1 93//1 7//1
f 89//9 7//9 93//9
f 89//10 91//10 7//10
f 7//11 91//11 6//11
f 91//12 5//12 6//12
f 5//1 64//1 6//1
f 64//13 3//13 6//13
f 67//14 91//14 73//14
f 92//15 73//15 91//15
f 73//16 92//16 74//16
f 68//1 73//1 65//1
f 67//1 73//1 68//1
f 65//1 96//1 68//1
f 96//1 97//1 98//1
f 77//3 66//3 75//3
f 66//1 100//1 99//1
f 92//16 100//16 74//16
f 100//17 102//17 99//17
f 100//18 104//18 103//18
f 102//1 106//1 105//1
f 104//16 106//16 103//16
f 42//19 38//19 113//19
f 114//19 113//19 38//19
f 44//19 42//19 46//19
f 48//19 46//19 50//19
f 113//19 46//19 42//19
f 46//19 113//19 112//19
f 112//19 50//19 46//19
f 50//19 112//19 111//19
f 52//19 50//19 54//19
f 111//19 54//19 50//19
f 54//19 111//19 110//19
f 80//19 54//19 82//19
f 84//19 82//19 86//19
f 88//19 86//19 90//19
f 108//19 90//19 86//19
f 109//19 86//19 82//19
f 86//19 109//19 108//19
f 110//19 82//19 54//19
f 82//19 110//19 109//19
f 114//20 101//20 113//20
f 113//20 101//20 112//20
f 112//20 101//20 111//20
f 111//20 101//20 110//20
f 110//20 101//20 109//20
f 109//20 101//20 108//20
f 90//21 108//21 101//21
f 92//1 90//1 101//1
f 33//6 118//6 34//6
f 9//6 117//6 33//6
f 11//6 115//6 9//6
f 104//22 101//22 114//22
f 114//22 38//22 104//22
f 34//22 104//22 38//22
f 34//22 118//22 104//22
f 66//7 102//7 75//7
f 104//2 120//2 107//2
f 104//22 118//22 119//22
f 3//1 1//1 2//1
f 70//1 71//1 72//1
f 4//2 7//2 6//2
f 8//1 10//1 11//1
f 8//3 12//3 13//3
f 12//1 14//1 15//1
f 14//3 16//3 17//3
f 16//1 18//1 19//1
f 18//3 20//3 21//3
f 20//1 22//1 23//1
f 22//3 24//3 25//3
f 24//1 26//1 27//1
f 26//3 28//3 29//3
f 28//1 30//1 31//1
f 9//1 33//1 32//1
f 34//4 36//4 35//4
f 35//2 36//2 38//2
f 38//1 40//1 39//1
f 40//4 42//4 41//4
f 42//1 44//1 43//1
f 44//4 46//4 45//4
f 46//1 48//1 47//1
f 48//4 50//4 49//4
f 50//1 52//1 51//1
f 52//4 54//4 53//4
f 74//7 77//7 78//7
f 68//2 72//2 71//2
f 5//7 70//7 69//7
f 67//3 71//3 70//3
f 77//1 75//1 76//1
f 73//6 78//6 76//6
f 65//2 76//2 75//2
f 54//1 80//1 79//1
f 80//4 82//4 81//4
f 82//1 84//1 83//1
f 84//4 86//4 85//4
f 86//1 88//1 87//1
f 88//4 90//4 89//4
f 90//1 92//1 91//1
f 64//13 69//13 3//13
f 96//1 65//1 97//1
f 77//3 74//3 66//3
f 66//1 74//1 100//1
f 92//16 101//16 100//16
f 100//17 103//17 102//17
f 100//18 101//18 104//18
f 102//1 103//1 106//1
f 104//16 107//16 106//16
f 42//19 40//19 38//19
f 33//6 117//6 118//6
f 9//6 115//6 117//6
f 11//6 116//6 115//6
f 66//7 99//7 102//7
f 104//2 119//2 120//2
